<svg width="52" height="50" viewBox="0 0 52 50" fill="none" xmlns="http://www.w3.org/2000/svg">
<g opacity="0.5">
<rect width="52" height="50" rx="10" fill="#3B3C42"/>
<path d="M37.375 29.4375L27.375 39.4375C27 39.8125 26.5 40 26 40C25.4375 40 24.9375 39.8125 24.5625 39.4375L14.5625 29.4375C13.75 28.6875 13.75 27.375 14.5625 26.625C15.3125 25.8125 16.625 25.8125 17.375 26.625L24 33.1875V14C24 12.9375 24.875 12.0625 25.9375 12.0625C26.9375 12.0625 28 12.9375 28 14V33.1875L34.5625 26.625C35.3125 25.8125 36.625 25.8125 37.375 26.625C38.1875 27.375 38.1875 28.6875 37.375 29.4375Z" fill="#8993A0"/>
</g>
</svg>
