<svg width="52" height="50" viewBox="0 0 52 50" fill="none" xmlns="http://www.w3.org/2000/svg">
<g opacity="0.5">
<rect width="52" height="50" rx="10" fill="#3B3C42"/>
<path d="M37.375 25.4375C37 25.8125 36.5 26 36 26C35.4375 26 34.9375 25.8125 34.5625 25.4375L28 18.875V38C28 39.125 27.0625 40 26 40C25 40 24 39.125 24 38V18.875L17.375 25.4375C16.625 26.25 15.3125 26.25 14.5625 25.4375C13.75 24.6875 13.75 23.375 14.5625 22.625L24.5625 12.625C25.3125 11.8125 26.625 11.8125 27.375 12.625L37.375 22.625C38.1875 23.375 38.1875 24.6875 37.375 25.4375Z" fill="#8993A0"/>
</g>
</svg>
