<svg width="11" height="13" viewBox="0 0 11 13" fill="none" xmlns="http://www.w3.org/2000/svg">
<path d="M10.75 8.96777C10.75 9.15527 10.6562 9.31934 10.5391 9.41309C10.4219 9.76465 10.4219 10.7959 10.5391 11.1709C10.6562 11.2646 10.75 11.4287 10.75 11.5928V11.9678C10.75 12.2959 10.4922 12.5303 10.1875 12.5303H2.5C1.25781 12.5303 0.25 11.5225 0.25 10.2803V2.78027C0.25 1.53809 1.25781 0.530273 2.5 0.530273H10.1875C10.4922 0.530273 10.75 0.788086 10.75 1.09277V8.96777ZM3.25 3.6709V4.13965C3.25 4.2334 3.29688 4.28027 3.39062 4.28027H8.35938C8.42969 4.28027 8.5 4.2334 8.5 4.13965V3.6709C8.5 3.60059 8.42969 3.53027 8.35938 3.53027H3.39062C3.29688 3.53027 3.25 3.60059 3.25 3.6709ZM3.25 5.1709V5.63965C3.25 5.7334 3.29688 5.78027 3.39062 5.78027H8.35938C8.42969 5.78027 8.5 5.7334 8.5 5.63965V5.1709C8.5 5.10059 8.42969 5.03027 8.35938 5.03027H3.39062C3.29688 5.03027 3.25 5.10059 3.25 5.1709ZM9.17969 11.0303C9.13281 10.6318 9.13281 9.95215 9.17969 9.53027H2.5C2.07812 9.53027 1.75 9.88184 1.75 10.2803C1.75 10.7021 2.07812 11.0303 2.5 11.0303H9.17969Z" fill="#8993A0"/>
</svg>
