<svg width="12" height="10" viewBox="0 0 12 10" fill="none" xmlns="http://www.w3.org/2000/svg">
<path d="M11.7656 3.00684C11.8594 2.93652 12 3.00684 12 3.12402V7.90527C12 8.53809 11.4844 9.03027 10.875 9.03027H1.125C0.492188 9.03027 0 8.53809 0 7.90527V3.12402C0 3.00684 0.117188 2.93652 0.210938 3.00684C0.75 3.42871 1.42969 3.94434 3.82031 5.67871C4.3125 6.03027 5.15625 6.80371 6 6.80371C6.82031 6.80371 7.6875 6.03027 8.15625 5.67871C10.5469 3.94434 11.2266 3.42871 11.7656 3.00684ZM6 6.03027C5.4375 6.05371 4.66406 5.35059 4.26562 5.06934C1.14844 2.81934 0.914062 2.6084 0.210938 2.0459C0.0703125 1.95215 0 1.78809 0 1.60059V1.15527C0 0.545898 0.492188 0.0302734 1.125 0.0302734H10.875C11.4844 0.0302734 12 0.545898 12 1.15527V1.60059C12 1.78809 11.9062 1.95215 11.7656 2.0459C11.0625 2.6084 10.8281 2.81934 7.71094 5.06934C7.3125 5.35059 6.53906 6.05371 6 6.03027Z" fill="#8993A0"/>
</svg>
