<svg width="11" height="11" viewBox="0 0 11 11" fill="none" xmlns="http://www.w3.org/2000/svg">
<path d="M5.5 2.83496C6.97656 2.83496 8.19531 4.05371 8.19531 5.53027C8.19531 7.03027 6.97656 8.22559 5.5 8.22559C4 8.22559 2.80469 7.03027 2.80469 5.53027C2.80469 4.05371 4 2.83496 5.5 2.83496ZM5.5 7.28809C6.46094 7.28809 7.23438 6.51465 7.23438 5.53027C7.23438 4.56934 6.46094 3.7959 5.5 3.7959C4.51562 3.7959 3.74219 4.56934 3.74219 5.53027C3.74219 6.51465 4.53906 7.28809 5.5 7.28809ZM8.92188 2.74121C8.92188 3.09277 8.64062 3.37402 8.28906 3.37402C7.9375 3.37402 7.65625 3.09277 7.65625 2.74121C7.65625 2.38965 7.9375 2.1084 8.28906 2.1084C8.64062 2.1084 8.92188 2.38965 8.92188 2.74121ZM10.7031 3.37402C10.75 4.24121 10.75 6.84277 10.7031 7.70996C10.6562 8.55371 10.4688 9.28027 9.85938 9.91309C9.25 10.5225 8.5 10.71 7.65625 10.7568C6.78906 10.8037 4.1875 10.8037 3.32031 10.7568C2.47656 10.71 1.75 10.5225 1.11719 9.91309C0.507812 9.28027 0.320312 8.55371 0.273438 7.70996C0.226562 6.84277 0.226562 4.24121 0.273438 3.37402C0.320312 2.53027 0.507812 1.78027 1.11719 1.1709C1.75 0.561523 2.47656 0.374023 3.32031 0.327148C4.1875 0.280273 6.78906 0.280273 7.65625 0.327148C8.5 0.374023 9.25 0.561523 9.85938 1.1709C10.4688 1.78027 10.6562 2.53027 10.7031 3.37402ZM9.57812 8.62402C9.85938 7.94434 9.78906 6.30371 9.78906 5.53027C9.78906 4.78027 9.85938 3.13965 9.57812 2.43652C9.39062 1.99121 9.03906 1.61621 8.59375 1.45215C7.89062 1.1709 6.25 1.24121 5.5 1.24121C4.72656 1.24121 3.08594 1.1709 2.40625 1.45215C1.9375 1.63965 1.58594 1.99121 1.39844 2.43652C1.11719 3.13965 1.1875 4.78027 1.1875 5.53027C1.1875 6.30371 1.11719 7.94434 1.39844 8.62402C1.58594 9.09277 1.9375 9.44434 2.40625 9.63184C3.08594 9.91309 4.72656 9.84277 5.5 9.84277C6.25 9.84277 7.89062 9.91309 8.59375 9.63184C9.03906 9.44434 9.41406 9.09277 9.57812 8.62402Z" fill="#4D535B"/>
</svg>
