<svg width="14" height="10" viewBox="0 0 14 10" fill="none" xmlns="http://www.w3.org/2000/svg">
<path d="M13.1172 1.45996C13.3984 2.44434 13.3984 4.55371 13.3984 4.55371C13.3984 4.55371 13.3984 6.63965 13.1172 7.64746C12.9766 8.20996 12.5312 8.63184 11.9922 8.77246C10.9844 9.03027 7 9.03027 7 9.03027C7 9.03027 2.99219 9.03027 1.98438 8.77246C1.44531 8.63184 1 8.20996 0.859375 7.64746C0.578125 6.63965 0.578125 4.55371 0.578125 4.55371C0.578125 4.55371 0.578125 2.44434 0.859375 1.45996C1 0.897461 1.44531 0.452148 1.98438 0.311523C2.99219 0.0302734 7 0.0302734 7 0.0302734C7 0.0302734 10.9844 0.0302734 11.9922 0.311523C12.5312 0.452148 12.9766 0.897461 13.1172 1.45996ZM5.6875 6.45215L9.01562 4.55371L5.6875 2.65527V6.45215Z" fill="#4D535B"/>
</svg>
