<svg width="19" height="18" viewBox="0 0 19 18" fill="none" xmlns="http://www.w3.org/2000/svg">
<path d="M11.0391 16.4219L10.1797 17.2812C9.78906 17.6328 9.20312 17.6328 8.85156 17.2812L1.27344 9.66406C0.882812 9.3125 0.882812 8.72656 1.27344 8.375L8.85156 0.757812C9.20312 0.40625 9.82812 0.40625 10.1797 0.757812L11.0391 1.61719C11.4297 2.00781 11.3906 2.59375 11.0391 2.98438L6.3125 7.4375H17.5625C18.0703 7.4375 18.5 7.86719 18.5 8.375V9.625C18.5 10.1719 18.0703 10.5625 17.5625 10.5625H6.3125L11.0391 15.0547C11.3906 15.4453 11.4297 16.0312 11.0391 16.4219Z" fill="white"/>
</svg>
