<svg width="13" height="11" viewBox="0 0 13 11" fill="none" xmlns="http://www.w3.org/2000/svg">
<path d="M7 0.25C10.3047 0.25 13 2.45312 13 5.125C13 7.82031 10.3047 10 7 10C6.08594 10 5.24219 9.83594 4.46875 9.55469C3.90625 10.0234 2.73438 10.75 1.1875 10.75C1.09375 10.75 1.04688 10.7266 1 10.6562C0.976562 10.5859 1 10.4922 1.04688 10.4453C1.04688 10.4219 2.03125 9.39062 2.33594 8.19531C1.49219 7.35156 1 6.29688 1 5.125C1 2.45312 3.67188 0.25 7 0.25ZM4 5.875C4.39844 5.875 4.75 5.54688 4.75 5.125C4.75 4.72656 4.39844 4.375 4 4.375C3.57812 4.375 3.25 4.72656 3.25 5.125C3.25 5.54688 3.57812 5.875 4 5.875ZM7 5.875C7.39844 5.875 7.75 5.54688 7.75 5.125C7.75 4.72656 7.39844 4.375 7 4.375C6.57812 4.375 6.25 4.72656 6.25 5.125C6.25 5.54688 6.57812 5.875 7 5.875ZM10 5.875C10.3984 5.875 10.75 5.54688 10.75 5.125C10.75 4.72656 10.3984 4.375 10 4.375C9.57812 4.375 9.25 4.72656 9.25 5.125C9.25 5.54688 9.57812 5.875 10 5.875Z" fill="#B4BFCE"/>
</svg>
