<svg width="106" height="40" viewBox="0 0 106 40" fill="none" xmlns="http://www.w3.org/2000/svg">
<path d="M60.8553 11.7209C58.0601 11.7209 55.5577 10.072 54.2499 7.60174C53.5995 6.36766 52.9686 5.31702 52.3571 4.44983C51.7512 3.58264 51.1619 2.91557 50.5893 2.44862C50.1523 2.08796 49.7234 1.86495 49.3025 1.77957C49.0904 1.73654 48.9133 1.5644 48.9133 1.34796C48.9133 1.13152 49.0888 0.956055 49.3052 0.956055H63.322C63.5385 0.956055 63.7139 1.13152 63.7139 1.34796C63.7139 1.5644 63.5383 1.73841 63.3222 1.75064C63.1756 1.75893 63.0338 1.77202 62.8968 1.78989C62.6466 1.82325 62.4271 1.88161 62.238 1.965C62.0546 2.04838 61.9101 2.16234 61.8045 2.30687C61.6988 2.4514 61.646 2.63485 61.646 2.8572C61.646 2.99062 61.6877 3.19908 61.7711 3.48258C61.86 3.76609 61.9796 4.1024 62.1296 4.49152C62.2853 4.88065 62.4632 5.31146 62.6633 5.78397C62.869 6.25092 63.0886 6.73733 63.322 7.24319C63.5611 7.74349 63.8084 8.25213 64.0642 8.76911C64.2049 9.04463 64.3449 9.31451 64.484 9.57874C64.643 9.88062 65.0585 9.89343 65.2232 9.59461C65.3733 9.32222 65.5345 9.01648 65.7068 8.67739C65.8791 8.33273 66.057 7.96863 66.2405 7.58506C66.4295 7.19594 66.6101 6.80681 66.7825 6.41769C66.9603 6.02301 67.1271 5.63944 67.2828 5.26699C67.444 4.89455 67.5829 4.55267 67.6997 4.24137C67.822 3.92452 67.9165 3.64935 67.9832 3.41587C68.0555 3.1824 68.0916 3.01007 68.0916 2.8989C68.0916 2.70433 68.0555 2.53479 67.9832 2.39025C67.9165 2.24572 67.8025 2.12621 67.6413 2.0317C67.4801 1.93164 67.2689 1.85938 67.0076 1.81491C66.8395 1.78271 66.6449 1.76088 66.4238 1.7494C66.2076 1.73818 66.032 1.5644 66.032 1.34796C66.032 1.13152 66.2075 0.956055 66.4239 0.956055H73.1613C73.3778 0.956055 73.5532 1.13152 73.5532 1.34796C73.5532 1.5644 73.3774 1.73783 73.1618 1.75698C72.7674 1.792 72.392 1.8808 72.0356 2.02337C71.5687 2.20681 71.1212 2.48476 70.6932 2.8572C70.2651 3.22965 69.851 3.6966 69.4507 4.25805C69.0505 4.81394 68.6475 5.46155 68.2417 6.20089C67.8414 6.94023 67.4301 7.77128 67.0076 8.69406C66.1801 10.5147 64.3887 11.7209 62.3889 11.7209H60.8553Z" fill="white"/>
<path d="M24.6396 11.3225C24.6396 11.1076 24.8101 10.9322 25.0246 10.9187C25.6888 10.8768 26.2526 10.7856 26.7159 10.6452C27.2662 10.4785 27.7054 10.2116 28.0334 9.84476C28.3613 9.47787 28.592 8.99702 28.7255 8.40222C28.8644 7.80186 28.9339 7.0514 28.9339 6.15086C28.9339 5.54494 28.8978 5.01406 28.8255 4.55823C28.7588 4.1024 28.6504 3.71328 28.5003 3.39086C28.3558 3.06288 28.1668 2.79328 27.9333 2.58204C27.7054 2.36524 27.433 2.19569 27.1161 2.0734C26.7993 1.9511 26.4352 1.86494 26.0238 1.81491C25.7203 1.77799 25.3895 1.7547 25.0315 1.74502C24.8152 1.73917 24.6396 1.5644 24.6396 1.34796C24.6396 1.13152 24.8151 0.956055 25.0316 0.956055H46.7879C47.4517 0.956055 48.0287 1.42322 48.1122 2.08173C48.1678 2.47086 48.2122 2.86276 48.2456 3.25745C48.2845 3.64657 48.3123 4.03291 48.329 4.41648C48.3364 4.58403 48.3421 4.74668 48.3462 4.9044C48.3544 5.21972 48.0983 5.47545 47.7828 5.47545C47.5926 5.47545 47.417 5.37897 47.2991 5.22962C47.0768 4.94793 46.8058 4.67966 46.4862 4.42482C46.0804 4.09684 45.6162 3.79666 45.0937 3.52427C44.5711 3.25189 44.0041 3.00729 43.3926 2.7905C42.7867 2.5737 42.1586 2.39025 41.5082 2.24016C40.8578 2.09007 40.2018 1.97612 39.5403 1.89829C39.5001 1.89356 39.4599 1.88896 39.4198 1.88452C38.4219 1.77393 37.6058 2.59541 37.6058 3.59935V5.14617C37.6058 5.57504 38.0136 5.87771 38.4146 5.7256C38.7426 5.59775 39.0873 5.456 39.4486 5.30035C39.8155 5.1447 40.1852 4.98071 40.5576 4.80838C40.9356 4.63606 41.2858 4.47207 41.6082 4.31642C41.9362 4.15521 42.2197 4.01068 42.4587 3.88282C42.7067 3.75321 43.0314 3.89151 43.0654 4.16922C43.069 4.19843 43.0725 4.22804 43.0758 4.25805C43.1091 4.50264 43.1342 4.75835 43.1508 5.02518C43.1675 5.28645 43.1786 5.54494 43.1842 5.80065C43.1897 6.05636 43.1925 6.28983 43.1925 6.50107C43.1925 6.69563 43.187 6.91243 43.1758 7.15146C43.1703 7.3905 43.1564 7.63231 43.1342 7.8769C43.1175 8.1215 43.0952 8.35775 43.0674 8.58566C43.0307 8.87932 42.7022 9.02754 42.4388 8.89271C42.4344 8.89043 42.4299 8.88814 42.4254 8.88585C42.1808 8.75799 41.8973 8.61624 41.5749 8.46059C41.2525 8.29938 40.905 8.13539 40.5326 7.96863C40.1601 7.7963 39.7932 7.63231 39.4319 7.47666C39.0706 7.32101 38.7287 7.18204 38.4063 7.05974C38.0109 6.9002 37.6058 7.19947 37.6058 7.62584V9.12071C37.6058 10.1008 38.4023 10.8991 39.3766 10.7918C39.4611 10.7825 39.5462 10.7725 39.632 10.762C40.3603 10.673 41.094 10.548 41.8334 10.3868C42.5727 10.2255 43.2954 10.0338 44.0013 9.81141C44.7129 9.58905 45.3633 9.34168 45.9525 9.06929C46.5418 8.79134 47.0504 8.49672 47.4784 8.18542C47.7924 7.95603 48.0392 7.72081 48.2191 7.47976C48.3404 7.3172 48.5227 7.20149 48.7256 7.20149C49.0269 7.20149 49.2716 7.44581 49.2642 7.74705C49.26 7.91485 49.254 8.08876 49.2462 8.26881C49.2295 8.64681 49.2017 9.03316 49.1628 9.42784C49.1294 9.81696 49.085 10.2089 49.0294 10.6035C48.9453 11.2572 48.3724 11.7209 47.7134 11.7209H25.0381C24.818 11.7209 24.6396 11.5425 24.6396 11.3225Z" fill="white"/>
<path d="M0 11.3225C0 11.1076 0.170488 10.9322 0.384943 10.9187C1.04918 10.8768 1.61295 10.7856 2.07625 10.6452C2.62659 10.4785 3.06574 10.2116 3.39372 9.84476C3.72169 9.47787 3.95239 8.99702 4.0858 8.40222C4.22477 7.80186 4.29426 7.0514 4.29426 6.15086C4.29426 5.54494 4.25813 5.01406 4.18586 4.55823C4.11916 4.1024 4.01076 3.71328 3.86067 3.39086C3.71613 3.06288 3.52713 2.79328 3.29366 2.58204C3.06574 2.36524 2.79335 2.19569 2.4765 2.0734C2.15964 1.9511 1.79553 1.86494 1.38417 1.81491C1.08065 1.77799 0.749889 1.7547 0.391892 1.74502C0.175529 1.73917 0 1.5644 0 1.34796C0 1.13152 0.175461 0.956055 0.391904 0.956055H13.7333C14.745 0.956055 15.7512 0.972731 16.7518 1.00608C17.7579 1.03944 18.7196 1.11448 19.6369 1.23122C20.5541 1.34796 21.4074 1.52306 22.1967 1.75654C22.9861 1.98445 23.6699 2.29853 24.248 2.69877C24.8261 3.09346 25.2792 3.58542 25.6071 4.17467C25.9407 4.76391 26.1074 5.47823 26.1074 6.31763C26.1074 6.96246 25.9879 7.53503 25.7489 8.03533C25.5154 8.53563 25.1902 8.97479 24.7733 9.35279C24.3564 9.72524 23.8616 10.0421 23.2891 10.3034C22.7221 10.5646 22.1022 10.7842 21.4296 10.9621C20.7625 11.14 20.0593 11.279 19.32 11.379C18.5807 11.4791 17.8302 11.5541 17.0686 11.6042C16.3126 11.6542 15.5622 11.6875 14.8173 11.7042C14.0724 11.7153 13.3608 11.7209 12.6827 11.7209H0.398434C0.178385 11.7209 0 11.5425 0 11.3225ZM12.9662 9.23915C12.9662 10.0397 13.6484 10.7023 14.417 10.4785C14.8618 10.3506 15.2425 10.1283 15.5594 9.81141C15.8763 9.49455 16.1236 9.05817 16.3015 8.50228C16.4794 7.94083 16.5683 7.21261 16.5683 6.31763C16.5683 5.68391 16.5294 5.13636 16.4516 4.67497C16.3793 4.21358 16.2709 3.82445 16.1264 3.5076C15.9819 3.18518 15.804 2.92669 15.5928 2.73213C15.3871 2.53201 15.1508 2.37636 14.884 2.26518C14.6172 2.154 14.3225 2.07896 14.0001 2.04004C13.4374 1.96243 12.9662 2.42646 12.9662 2.99446V9.23915Z" fill="white"/>
<path d="M76.9566 25.3825C74.1615 25.3825 71.659 23.7337 70.3512 21.2634C69.7008 20.0293 69.0699 18.9786 68.4584 18.1115C67.8525 17.2443 67.2632 16.5772 66.6907 16.1102C66.2536 15.7496 65.8247 15.5266 65.4038 15.4412C65.1917 15.3982 65.0146 15.226 65.0146 15.0096C65.0146 14.7931 65.1901 14.6177 65.4066 14.6177H79.4234C79.6398 14.6177 79.8153 14.7931 79.8153 15.0096C79.8153 15.226 79.6396 15.4 79.4235 15.4123C79.2769 15.4206 79.1351 15.4336 78.9981 15.4515C78.7479 15.4849 78.5284 15.5432 78.3394 15.6266C78.1559 15.71 78.0114 15.824 77.9058 15.9685C77.8002 16.113 77.7473 16.2965 77.7473 16.5188C77.7473 16.6522 77.789 16.8607 77.8724 17.1442C77.9614 17.4277 78.0809 17.764 78.231 18.1531C78.3866 18.5423 78.5645 18.9731 78.7646 19.4456C78.9703 19.9125 79.1899 20.3989 79.4234 20.9048C79.6624 21.4051 79.9098 21.9138 80.1655 22.4307C80.3062 22.7063 80.4462 22.9761 80.5853 23.2404C80.7443 23.5422 81.1598 23.5551 81.3245 23.2562C81.4746 22.9838 81.6358 22.6781 81.8081 22.339C81.9805 21.9944 82.1583 21.6302 82.3418 21.2467C82.5308 20.8576 82.7115 20.4684 82.8838 20.0793C83.0617 19.6846 83.2284 19.3011 83.3841 18.9286C83.5453 18.5562 83.6843 18.2143 83.801 17.903C83.9233 17.5861 84.0178 17.311 84.0845 17.0775C84.1568 16.844 84.1929 16.6717 84.1929 16.5605C84.1929 16.366 84.1568 16.1964 84.0845 16.0519C84.0178 15.9073 83.9038 15.7878 83.7426 15.6933C83.5814 15.5933 83.3702 15.521 83.1089 15.4765C82.9408 15.4443 82.7462 15.4225 82.5251 15.411C82.309 15.3998 82.1333 15.226 82.1333 15.0096C82.1333 14.7931 82.3088 14.6177 82.5252 14.6177H89.2626C89.4791 14.6177 89.6545 14.7931 89.6545 15.0096C89.6545 15.226 89.4787 15.3994 89.2631 15.4186C88.8688 15.4536 88.4934 15.5424 88.137 15.685C87.67 15.8684 87.2225 16.1464 86.7945 16.5188C86.3664 16.8913 85.9523 17.3582 85.5521 17.9197C85.1518 18.4756 84.7488 19.1232 84.343 19.8625C83.9428 20.6018 83.5314 21.4329 83.1089 22.3557C82.2814 24.1763 80.4901 25.3825 78.4902 25.3825H76.9566Z" fill="white"/>
<path d="M40.741 24.9841C40.741 24.7692 40.9115 24.5938 41.1259 24.5803C41.7901 24.5384 42.3539 24.4473 42.8172 24.3069C43.3676 24.1401 43.8067 23.8733 44.1347 23.5064C44.4627 23.1395 44.6934 22.6586 44.8268 22.0638C44.9657 21.4635 45.0352 20.713 45.0352 19.8125C45.0352 19.2066 44.9991 18.6757 44.9268 18.2199C44.8601 17.764 44.7517 17.3749 44.6016 17.0525C44.4571 16.7245 44.2681 16.4549 44.0346 16.2437C43.8067 16.0269 43.5343 15.8573 43.2175 15.735C42.9006 15.6127 42.5365 15.5266 42.1251 15.4765C41.8216 15.4396 41.4909 15.4163 41.1329 15.4066C40.9165 15.4008 40.741 15.226 40.741 15.0096C40.741 14.7931 40.9164 14.6177 41.1329 14.6177H62.8892C63.553 14.6177 64.13 15.0848 64.2135 15.7434C64.2691 16.1325 64.3135 16.5244 64.3469 16.9191C64.3858 17.3082 64.4136 17.6945 64.4303 18.0781C64.4377 18.2457 64.4434 18.4083 64.4475 18.566C64.4558 18.8813 64.1996 19.1371 63.8842 19.1371C63.6939 19.1371 63.5183 19.0406 63.4004 18.8912C63.1781 18.6095 62.9071 18.3413 62.5875 18.0864C62.1817 17.7585 61.7175 17.4583 61.195 17.1859C60.6725 16.9135 60.1054 16.6689 59.494 16.4521C58.888 16.2353 58.2599 16.0519 57.6095 15.9018C56.9591 15.7517 56.3031 15.6377 55.6416 15.5599C55.6014 15.5552 55.5612 15.5506 55.5211 15.5461C54.5233 15.4356 53.7071 16.257 53.7071 17.261V18.8078C53.7071 19.2367 54.115 19.5393 54.516 19.3872C54.8439 19.2594 55.1886 19.1176 55.5499 18.962C55.9168 18.8063 56.2865 18.6423 56.6589 18.47C57.0369 18.2977 57.3871 18.1337 57.7096 17.978C58.0375 17.8168 58.321 17.6723 58.5601 17.5444C58.808 17.4148 59.1328 17.5531 59.1667 17.8308C59.1703 17.86 59.1738 17.8897 59.1771 17.9197C59.2105 18.1643 59.2355 18.42 59.2521 18.6868C59.2688 18.9481 59.2799 19.2066 59.2855 19.4623C59.2911 19.718 59.2938 19.9515 59.2938 20.1627C59.2938 20.3573 59.2883 20.5741 59.2772 20.8131C59.2716 21.0521 59.2577 21.2939 59.2355 21.5385C59.2188 21.7831 59.1966 22.0194 59.1688 22.2473C59.1321 22.5409 58.8036 22.6892 58.5401 22.5543C58.5357 22.5521 58.5312 22.5498 58.5267 22.5475C58.2821 22.4196 57.9986 22.2779 57.6762 22.1222C57.3538 21.961 57.0063 21.797 56.6339 21.6302C56.2615 21.4579 55.8946 21.2939 55.5332 21.1383C55.1719 20.9826 54.83 20.8437 54.5076 20.7214C54.1122 20.5618 53.7071 20.8611 53.7071 21.2875V22.7823C53.7071 23.7625 54.5036 24.5607 55.4779 24.4534C55.5624 24.4441 55.6475 24.4342 55.7334 24.4236C56.4616 24.3347 57.1954 24.2096 57.9347 24.0484C58.674 23.8872 59.3967 23.6954 60.1027 23.473C60.8142 23.2507 61.4646 23.0033 62.0538 22.7309C62.6431 22.453 63.1517 22.1583 63.5798 21.847C63.8937 21.6177 64.1406 21.3824 64.3204 21.1414C64.4418 20.9788 64.6241 20.8631 64.8269 20.8631C65.1282 20.8631 65.3729 21.1074 65.3655 21.4087C65.3613 21.5765 65.3553 21.7504 65.3475 21.9304C65.3308 22.3084 65.303 22.6948 65.2641 23.0895C65.2308 23.4786 65.1863 23.8705 65.1307 24.2652C65.0467 24.9188 64.4737 25.3825 63.8147 25.3825H41.1394C40.9194 25.3825 40.741 25.2041 40.741 24.9841Z" fill="white"/>
<path d="M16.1013 24.9841C16.1013 24.7692 16.2718 24.5938 16.4863 24.5803C17.1505 24.5384 17.7143 24.4473 18.1776 24.3069C18.7279 24.1401 19.1671 23.8733 19.495 23.5064C19.823 23.1395 20.0537 22.6586 20.1871 22.0638C20.3261 21.4635 20.3956 20.713 20.3956 19.8125C20.3956 19.2066 20.3594 18.6757 20.2872 18.2199C20.2205 17.764 20.1121 17.3749 19.962 17.0525C19.8175 16.7245 19.6284 16.4549 19.395 16.2437C19.1671 16.0269 18.8947 15.8573 18.5778 15.735C18.261 15.6127 17.8968 15.5266 17.4855 15.4765C17.182 15.4396 16.8512 15.4163 16.4932 15.4066C16.2768 15.4008 16.1013 15.226 16.1013 15.0096C16.1013 14.7931 16.2768 14.6177 16.4932 14.6177H29.8346C30.8463 14.6177 31.8525 14.6344 32.8531 14.6677C33.8593 14.7011 34.821 14.7761 35.7382 14.8928C36.6554 15.0096 37.5087 15.1847 38.2981 15.4182C39.0874 15.6461 39.7712 15.9602 40.3493 16.3604C40.9274 16.7551 41.3805 17.247 41.7085 17.8363C42.042 18.4255 42.2088 19.1399 42.2088 19.9792C42.2088 20.6241 42.0892 21.1967 41.8502 21.697C41.6167 22.1973 41.2915 22.6364 40.8746 23.0144C40.4577 23.3869 39.963 23.7037 39.3904 23.965C38.8234 24.2263 38.2036 24.4458 37.5309 24.6237C36.8639 24.8016 36.1607 24.9406 35.4213 25.0406C34.682 25.1407 33.9315 25.2157 33.17 25.2658C32.414 25.3158 31.6635 25.3492 30.9186 25.3658C30.1737 25.377 29.4622 25.3825 28.784 25.3825H16.4998C16.2797 25.3825 16.1013 25.2041 16.1013 24.9841ZM29.0675 22.9008C29.0675 23.7013 29.7497 24.3639 30.5184 24.1401C30.9631 24.0122 31.3439 23.7899 31.6607 23.473C31.9776 23.1562 32.2249 22.7198 32.4028 22.1639C32.5807 21.6025 32.6697 20.8742 32.6697 19.9792C32.6697 19.3455 32.6307 18.798 32.5529 18.3366C32.4807 17.8752 32.3723 17.4861 32.2277 17.1692C32.0832 16.8468 31.9053 16.5883 31.6941 16.3937C31.4884 16.1936 31.2521 16.038 30.9853 15.9268C30.7185 15.8156 30.4239 15.7406 30.1014 15.7017C29.5388 15.6241 29.0675 16.0881 29.0675 16.6561V22.9008Z" fill="white"/>
<path d="M93.0579 39.0441C90.2628 39.0441 87.7603 37.3953 86.4525 34.925C85.8021 33.6909 85.1712 32.6403 84.5597 31.7731C83.9538 30.9059 83.3645 30.2388 82.792 29.7719C82.3549 29.4112 81.926 29.1882 81.5052 29.1028C81.293 29.0598 81.116 28.8876 81.116 28.6712C81.116 28.4548 81.2914 28.2793 81.5079 28.2793H95.5247C95.7411 28.2793 95.9166 28.4548 95.9166 28.6712C95.9166 28.8876 95.741 29.0617 95.5249 29.0739C95.3783 29.0822 95.2364 29.0953 95.0994 29.1131C94.8493 29.1465 94.6297 29.2049 94.4407 29.2882C94.2572 29.3716 94.1127 29.4856 94.0071 29.6301C93.9015 29.7746 93.8487 29.9581 93.8487 30.1804C93.8487 30.3139 93.8904 30.5223 93.9737 30.8058C94.0627 31.0893 94.1822 31.4256 94.3323 31.8148C94.4879 32.2039 94.6658 32.6347 94.8659 33.1072C95.0716 33.5742 95.2912 34.0606 95.5247 34.5664C95.7637 35.0667 96.0111 35.5754 96.2668 36.0924C96.4075 36.3679 96.5475 36.6378 96.6866 36.902C96.8456 37.2039 97.2612 37.2167 97.4258 36.9178C97.5759 36.6455 97.7371 36.3397 97.9094 36.0006C98.0818 35.656 98.2597 35.2919 98.4431 34.9083C98.6321 34.5192 98.8128 34.1301 98.9851 33.7409C99.163 33.3462 99.3298 32.9627 99.4854 32.5902C99.6466 32.2178 99.7856 31.8759 99.9023 31.5646C100.025 31.2478 100.119 30.9726 100.186 30.7391C100.258 30.5056 100.294 30.3333 100.294 30.2221C100.294 30.0276 100.258 29.858 100.186 29.7135C100.119 29.569 100.005 29.4494 99.8439 29.3549C99.6827 29.2549 99.4715 29.1826 99.2102 29.1381C99.0421 29.106 98.8475 29.0841 98.6264 29.0726C98.4103 29.0614 98.2346 28.8876 98.2346 28.6712C98.2346 28.4548 98.4101 28.2793 98.6265 28.2793H105.364C105.58 28.2793 105.756 28.4548 105.756 28.6712C105.756 28.8876 105.58 29.0611 105.364 29.0802C104.97 29.1152 104.595 29.204 104.238 29.3466C103.771 29.5301 103.324 29.808 102.896 30.1804C102.468 30.5529 102.054 31.0198 101.653 31.5813C101.253 32.1372 100.85 32.7848 100.444 33.5241C100.044 34.2635 99.6327 35.0945 99.2102 36.0173C98.3827 37.8379 96.5914 39.0441 94.5915 39.0441H93.0579Z" fill="white"/>
<path d="M56.842 38.6457C56.842 38.4308 57.0125 38.2555 57.227 38.2419C57.8912 38.2 58.455 38.1089 58.9183 37.9685C59.4686 37.8017 59.9078 37.5349 60.2358 37.168C60.5637 36.8011 60.7944 36.3203 60.9278 35.7255C61.0668 35.1251 61.1363 34.3746 61.1363 33.4741C61.1363 32.8682 61.1002 32.3373 61.0279 31.8815C60.9612 31.4256 60.8528 31.0365 60.7027 30.7141C60.5582 30.3861 60.3692 30.1165 60.1357 29.9053C59.9078 29.6885 59.6354 29.5189 59.3185 29.3966C59.0017 29.2743 58.6376 29.1882 58.2262 29.1381C57.9227 29.1012 57.5919 29.0779 57.2339 29.0683C57.0176 29.0624 56.842 28.8876 56.842 28.6712C56.842 28.4548 57.0175 28.2793 57.2339 28.2793H78.9903C79.6541 28.2793 80.2311 28.7465 80.3146 29.405C80.3701 29.7941 80.4146 30.186 80.448 30.5807C80.4869 30.9698 80.5147 31.3562 80.5314 31.7397C80.5387 31.9073 80.5445 32.0699 80.5486 32.2276C80.5568 32.543 80.3007 32.7987 79.9852 32.7987C79.795 32.7987 79.6193 32.7022 79.5015 32.5529C79.2792 32.2712 79.0082 32.0029 78.6886 31.7481C78.2828 31.4201 77.8186 31.1199 77.2961 30.8475C76.7735 30.5751 76.2065 30.3305 75.595 30.1137C74.9891 29.8969 74.361 29.7135 73.7106 29.5634C73.0602 29.4133 72.4042 29.2994 71.7427 29.2215C71.7025 29.2168 71.6623 29.2122 71.6222 29.2078C70.6243 29.0972 69.8082 29.9186 69.8082 30.9226V32.4694C69.8082 32.8983 70.216 33.2009 70.617 33.0488C70.945 32.921 71.2897 32.7792 71.651 32.6236C72.0179 32.4679 72.3875 32.304 72.76 32.1316C73.138 31.9593 73.4882 31.7953 73.8106 31.6397C74.1386 31.4785 74.4221 31.3339 74.6611 31.2061C74.9091 31.0765 75.2338 31.2147 75.2678 31.4925C75.2714 31.5217 75.2748 31.5513 75.2782 31.5813C75.3115 31.8259 75.3365 32.0816 75.3532 32.3484C75.3699 32.6097 75.381 32.8682 75.3866 33.1239C75.3921 33.3796 75.3949 33.6131 75.3949 33.8243C75.3949 34.0189 75.3894 34.2357 75.3782 34.4747C75.3727 34.7137 75.3588 34.9556 75.3365 35.2001C75.3199 35.4447 75.2976 35.681 75.2698 35.9089C75.2331 36.2026 74.9046 36.3508 74.6412 36.2159C74.6368 36.2137 74.6323 36.2114 74.6278 36.2091C74.3832 36.0812 74.0997 35.9395 73.7773 35.7838C73.4549 35.6226 73.1074 35.4586 72.735 35.2919C72.3625 35.1195 71.9956 34.9556 71.6343 34.7999C71.273 34.6443 70.9311 34.5053 70.6087 34.383C70.2133 34.2234 69.8082 34.5227 69.8082 34.9491V36.444C69.8082 37.4241 70.6047 38.2224 71.579 38.115C71.6634 38.1057 71.7486 38.0958 71.8344 38.0852C72.5626 37.9963 73.2964 37.8712 74.0358 37.71C74.7751 37.5488 75.4978 37.357 76.2037 37.1346C76.9153 36.9123 77.5657 36.6649 78.1549 36.3925C78.7442 36.1146 79.2528 35.82 79.6808 35.5087C79.9947 35.2793 80.2416 35.0441 80.4215 34.803C80.5428 34.6404 80.7251 34.5247 80.928 34.5247C81.2293 34.5247 81.474 34.769 81.4665 35.0703C81.4624 35.2381 81.4564 35.412 81.4486 35.592C81.4319 35.9701 81.4041 36.3564 81.3652 36.7511C81.3318 37.1402 81.2874 37.5321 81.2318 37.9268C81.1477 38.5804 80.5748 39.0441 79.9158 39.0441H57.2405C57.0204 39.0441 56.842 38.8657 56.842 38.6457Z" fill="white"/>
<path d="M32.2024 38.6457C32.2024 38.4308 32.3729 38.2555 32.5873 38.2419C33.2516 38.2 33.8153 38.1089 34.2786 37.9685C34.829 37.8017 35.2681 37.5349 35.5961 37.168C35.9241 36.8011 36.1548 36.3203 36.2882 35.7255C36.4272 35.1251 36.4967 34.3746 36.4967 33.4741C36.4967 32.8682 36.4605 32.3373 36.3883 31.8815C36.3215 31.4256 36.2131 31.0365 36.0631 30.7141C35.9185 30.3861 35.7295 30.1165 35.496 29.9053C35.2681 29.6885 34.9957 29.5189 34.6789 29.3966C34.362 29.2743 33.9979 29.1882 33.5866 29.1381C33.283 29.1012 32.9523 29.0779 32.5943 29.0683C32.3779 29.0624 32.2024 28.8876 32.2024 28.6712C32.2024 28.4548 32.3779 28.2793 32.5943 28.2793H45.9357C46.9474 28.2793 47.9536 28.296 48.9542 28.3293C49.9603 28.3627 50.922 28.4377 51.8393 28.5545C52.7565 28.6712 53.6098 28.8463 54.3991 29.0798C55.1885 29.3077 55.8722 29.6218 56.4504 30.022C57.0285 30.4167 57.4816 30.9087 57.8095 31.4979C58.1431 32.0872 58.3098 32.8015 58.3098 33.6409C58.3098 34.2857 58.1903 34.8583 57.9513 35.3586C57.7178 35.8589 57.3926 36.298 56.9757 36.676C56.5588 37.0485 56.064 37.3653 55.4915 37.6266C54.9245 37.8879 54.3046 38.1075 53.632 38.2853C52.9649 38.4632 52.2617 38.6022 51.5224 38.7023C50.7831 38.8023 50.0326 38.8774 49.271 38.9274C48.515 38.9774 47.7646 39.0108 47.0197 39.0275C46.2748 39.0386 45.5632 39.0441 44.8851 39.0441H32.6008C32.3808 39.0441 32.2024 38.8657 32.2024 38.6457ZM45.1686 36.5624C45.1686 37.363 45.8508 38.0255 46.6194 37.8017C47.0641 37.6739 47.4449 37.4515 47.7618 37.1346C48.0787 36.8178 48.326 36.3814 48.5039 35.8255C48.6818 35.2641 48.7707 34.5359 48.7707 33.6409C48.7707 33.0072 48.7318 32.4596 48.654 31.9982C48.5817 31.5368 48.4733 31.1477 48.3288 30.8308C48.1843 30.5084 48.0064 30.2499 47.7951 30.0554C47.5895 29.8552 47.3532 29.6996 47.0864 29.5884C46.8196 29.4772 46.5249 29.4022 46.2025 29.3633C45.6398 29.2857 45.1686 29.7497 45.1686 30.3177V36.5624Z" fill="white"/>
</svg>
