<svg width="12" height="13" viewBox="0 0 12 13" fill="none" xmlns="http://www.w3.org/2000/svg">
<path d="M11.8125 6.5C11.8125 9.71094 9.1875 12.3125 6 12.3125C2.78906 12.3125 0.1875 9.71094 0.1875 6.5C0.1875 3.3125 2.78906 0.6875 6 0.6875C9.1875 0.6875 11.8125 3.3125 11.8125 6.5ZM6 7.67188C5.39062 7.67188 4.92188 8.16406 4.92188 8.75C4.92188 9.35938 5.39062 9.82812 6 9.82812C6.58594 9.82812 7.07812 9.35938 7.07812 8.75C7.07812 8.16406 6.58594 7.67188 6 7.67188ZM4.96875 3.80469L5.13281 6.99219C5.15625 7.15625 5.27344 7.25 5.41406 7.25H6.5625C6.70312 7.25 6.82031 7.15625 6.84375 6.99219L7.00781 3.80469C7.03125 3.64062 6.89062 3.5 6.72656 3.5H5.25C5.08594 3.5 4.94531 3.64062 4.96875 3.80469Z" fill="#FF9999"/>
</svg>
