<svg width="14" height="15" viewBox="0 0 14 15" fill="none" xmlns="http://www.w3.org/2000/svg">
<path d="M13.7812 7.75C13.7812 11.4961 10.7188 14.5312 7 14.5312C3.25391 14.5312 0.21875 11.4961 0.21875 7.75C0.21875 4.03125 3.25391 0.96875 7 0.96875C10.7188 0.96875 13.7812 4.03125 13.7812 7.75ZM7 9.11719C6.28906 9.11719 5.74219 9.69141 5.74219 10.375C5.74219 11.0859 6.28906 11.6328 7 11.6328C7.68359 11.6328 8.25781 11.0859 8.25781 10.375C8.25781 9.69141 7.68359 9.11719 7 9.11719ZM5.79688 4.60547L5.98828 8.32422C6.01562 8.51562 6.15234 8.625 6.31641 8.625H7.65625C7.82031 8.625 7.95703 8.51562 7.98438 8.32422L8.17578 4.60547C8.20312 4.41406 8.03906 4.25 7.84766 4.25H6.125C5.93359 4.25 5.76953 4.41406 5.79688 4.60547Z" fill="#40FF81"/>
</svg>
