<svg width="14" height="11" viewBox="0 0 14 11" fill="none" xmlns="http://www.w3.org/2000/svg">
<path d="M14 4.21875C14 4.875 13.4258 5.42188 12.7695 5.42188H10.0352C10.4727 5.88672 10.5273 6.78906 9.87109 7.36328C10.2539 7.99219 9.92578 8.8125 9.40625 9.05859C9.65234 10.3984 8.80469 11 7.4375 11C7.35547 11 7.05469 11 7 11C5.30469 11 4.89453 10.1523 3.60938 9.96094C3.28125 9.90625 3.0625 9.63281 3.0625 9.30469V4.62891C3.0625 4.10938 3.33594 3.64453 3.82812 3.42578C4.62109 3.07031 6.42578 2.08594 6.78125 1.32031C6.97266 0.800781 7.35547 0.527344 7.875 0.5C8.80469 0.5 9.43359 1.48438 9.07812 2.33203C8.96875 2.57812 8.83203 2.79688 8.66797 3.01562H12.7695C13.3984 3.01562 14 3.58984 14 4.21875ZM2.625 4.21875V9.46875C2.625 9.85156 2.32422 10.125 1.96875 10.125H0.65625C0.273438 10.125 0 9.85156 0 9.46875V4.21875C0 3.86328 0.273438 3.5625 0.65625 3.5625H1.96875C2.32422 3.5625 2.625 3.86328 2.625 4.21875ZM1.85938 8.8125C1.85938 8.51172 1.61328 8.26562 1.3125 8.26562C0.984375 8.26562 0.765625 8.51172 0.765625 8.8125C0.765625 9.14062 0.984375 9.35938 1.3125 9.35938C1.61328 9.35938 1.85938 9.14062 1.85938 8.8125Z" fill="white"/>
</svg>
