<svg width="16" height="13" viewBox="0 0 16 13" fill="none" xmlns="http://www.w3.org/2000/svg">
<path d="M13.125 11.125V11.5625C13.125 12.3008 12.5234 12.875 11.8125 12.875H1.3125C0.574219 12.875 0 12.3008 0 11.5625V4.5625C0 3.85156 0.574219 3.25 1.3125 3.25H1.75V8.9375C1.75 10.168 2.70703 11.125 3.9375 11.125H13.125ZM15.75 8.9375C15.75 9.67578 15.1484 10.25 14.4375 10.25H3.9375C3.19922 10.25 2.625 9.67578 2.625 8.9375V1.9375C2.625 1.22656 3.19922 0.625 3.9375 0.625H14.4375C15.1484 0.625 15.75 1.22656 15.75 1.9375V8.9375ZM7 3.25C7 2.53906 6.39844 1.9375 5.6875 1.9375C4.94922 1.9375 4.375 2.53906 4.375 3.25C4.375 3.98828 4.94922 4.5625 5.6875 4.5625C6.39844 4.5625 7 3.98828 7 3.25ZM4.375 7.1875V8.5H14V5.4375L11.5938 3.05859C11.457 2.92188 11.2656 2.92188 11.1289 3.05859L7.4375 6.75L6.34375 5.68359C6.20703 5.54688 6.01562 5.54688 5.87891 5.68359L4.375 7.1875Z" fill="white"/>
</svg>
