<svg width="26" height="22" viewBox="0 0 26 22" fill="none" xmlns="http://www.w3.org/2000/svg">
<path d="M4.0625 16.9375C4.46875 16.9375 4.875 17.3438 4.875 17.75V21C4.875 21.457 4.46875 21.8125 4.0625 21.8125H0.8125C0.355469 21.8125 0 21.457 0 21V17.75C0 17.3438 0.355469 16.9375 0.8125 16.9375H4.0625ZM4.0625 0.6875C4.46875 0.6875 4.875 1.09375 4.875 1.5V4.75C4.875 5.20703 4.46875 5.5625 4.0625 5.5625H0.8125C0.355469 5.5625 0 5.20703 0 4.75V1.5C0 1.09375 0.355469 0.6875 0.8125 0.6875H4.0625ZM4.0625 8.8125C4.46875 8.8125 4.875 9.21875 4.875 9.625V12.875C4.875 13.332 4.46875 13.6875 4.0625 13.6875H0.8125C0.355469 13.6875 0 13.332 0 12.875V9.625C0 9.21875 0.355469 8.8125 0.8125 8.8125H4.0625ZM25.1875 17.75C25.5938 17.75 26 18.1562 26 18.5625V20.1875C26 20.6445 25.5938 21 25.1875 21H8.9375C8.48047 21 8.125 20.6445 8.125 20.1875V18.5625C8.125 18.1562 8.48047 17.75 8.9375 17.75H25.1875ZM25.1875 1.5C25.5938 1.5 26 1.90625 26 2.3125V3.9375C26 4.39453 25.5938 4.75 25.1875 4.75H8.9375C8.48047 4.75 8.125 4.39453 8.125 3.9375V2.3125C8.125 1.90625 8.48047 1.5 8.9375 1.5H25.1875ZM25.1875 9.625C25.5938 9.625 26 10.0312 26 10.4375V12.0625C26 12.5195 25.5938 12.875 25.1875 12.875H8.9375C8.48047 12.875 8.125 12.5195 8.125 12.0625V10.4375C8.125 10.0312 8.48047 9.625 8.9375 9.625H25.1875Z" fill="#B4BFCE"/>
</svg>
