<svg width="40" height="32" viewBox="0 0 40 32" fill="none" xmlns="http://www.w3.org/2000/svg">
<path d="M0.5 8C0.5 3.85786 3.85786 0.5 8 0.5H32C36.1421 0.5 39.5 3.85786 39.5 8V24C39.5 28.1421 36.1421 31.5 32 31.5H8C3.85786 31.5 0.5 28.1421 0.5 24V8Z" fill="#9021FF"/>
<path d="M0.5 8C0.5 3.85786 3.85786 0.5 8 0.5H32C36.1421 0.5 39.5 3.85786 39.5 8V24C39.5 28.1421 36.1421 31.5 32 31.5H8C3.85786 31.5 0.5 28.1421 0.5 24V8Z" stroke="#9021FF"/>
<path d="M15.625 21.875C14.1484 21.875 13 20.6992 13 19.25V12.25C13 10.8008 14.1484 9.625 15.625 9.625H17.375C17.8398 9.625 18.25 10.0352 18.25 10.5C18.25 10.9922 17.8398 11.375 17.375 11.375H15.625C15.1328 11.375 14.75 11.7852 14.75 12.25V19.25C14.75 19.7422 15.1328 20.125 15.625 20.125H17.375C17.8398 20.125 18.25 20.5352 18.25 21C18.25 21.4922 17.8398 21.875 17.375 21.875H15.625ZM26.7812 15.2852C27.0547 15.5312 27.0547 15.9961 26.7812 16.2148L22.8438 19.9336C22.6523 20.125 22.3789 20.1523 22.1328 20.0703C21.8867 19.9609 21.75 19.7148 21.75 19.4688V17.5H18.25C17.7578 17.5 17.375 17.1172 17.375 16.625V14.875C17.375 14.4102 17.7578 14 18.25 14H21.75V12.0312C21.75 11.7852 21.8867 11.5391 22.1328 11.4297C22.3789 11.3477 22.6523 11.375 22.8438 11.5664L26.7812 15.2852Z" fill="white"/>
</svg>
