<svg width="13" height="15" viewBox="0 0 13 15" fill="none" xmlns="http://www.w3.org/2000/svg">
<path d="M9.25 13V14.0938C9.25 14.4766 8.94922 14.75 8.59375 14.75H1.15625C0.773438 14.75 0.5 14.4766 0.5 14.0938V4.03125C0.5 3.67578 0.773438 3.375 1.15625 3.375H3.125V11.4688C3.125 12.3164 3.80859 13 4.65625 13H9.25ZM9.25 3.59375C9.25 3.97656 9.52344 4.25 9.90625 4.25H12.75V11.4688C12.75 11.8516 12.4492 12.125 12.0938 12.125H4.65625C4.27344 12.125 4 11.8516 4 11.4688V1.40625C4 1.05078 4.27344 0.75 4.65625 0.75H9.25V3.59375ZM12.5312 2.74609C12.668 2.88281 12.75 3.04688 12.75 3.21094V3.375H10.125V0.75H10.2891C10.4531 0.75 10.6172 0.832031 10.7539 0.96875L12.5312 2.74609Z" fill="white"/>
</svg>
