<svg width="16" height="15" viewBox="0 0 16 15" fill="none" xmlns="http://www.w3.org/2000/svg">
<path d="M14.5898 4.66016L13.332 5.91797C13.2227 6.02734 13.0039 6.02734 12.8672 5.91797L9.83203 2.88281C9.72266 2.74609 9.72266 2.52734 9.83203 2.41797L11.0898 1.16016C11.6094 0.640625 12.457 0.640625 12.9492 1.16016L14.5898 2.80078C15.1094 3.29297 15.1094 4.14062 14.5898 4.66016ZM8.76562 3.48438C8.875 3.375 9.09375 3.375 9.23047 3.48438L12.2656 6.51953C12.4023 6.65625 12.4023 6.875 12.2656 6.98438L5.07422 14.1758L1.76562 14.75C1.30078 14.832 0.917969 14.4492 1 13.9844L1.57422 10.6758L8.76562 3.48438ZM4.39062 10.0469C4.52734 10.2109 4.77344 10.2109 4.91016 10.0469L9.12109 5.83594C9.28516 5.69922 9.28516 5.45312 9.12109 5.31641C8.98438 5.15234 8.73828 5.15234 8.60156 5.31641L4.39062 9.52734C4.22656 9.66406 4.22656 9.91016 4.39062 10.0469ZM3.40625 12.3438V11.0312H2.39453L2.09375 12.8086L2.94141 13.6562L4.71875 13.3555V12.3438H3.40625Z" fill="white"/>
</svg>
