<svg width="17" height="15" viewBox="0 0 17 15" fill="none" xmlns="http://www.w3.org/2000/svg">
<path d="M3 14.5C1.3125 14.5 0 13.1562 0 11.5V3.5C0 1.84375 1.3125 0.5 3 0.5H5C5.53125 0.5 6 0.96875 6 1.5C6 2.0625 5.53125 2.5 5 2.5H3C2.4375 2.5 2 2.96875 2 3.5V11.5C2 12.0625 2.4375 12.5 3 12.5H5C5.53125 12.5 6 12.9688 6 13.5C6 14.0625 5.53125 14.5 5 14.5H3ZM15.75 6.96875C16.0625 7.25 16.0625 7.78125 15.75 8.03125L11.25 12.2812C11.0312 12.5 10.7188 12.5312 10.4375 12.4375C10.1562 12.3125 10 12.0312 10 11.75V9.5H6C5.4375 9.5 5 9.0625 5 8.5V6.5C5 5.96875 5.4375 5.5 6 5.5H10V3.25C10 2.96875 10.1562 2.6875 10.4375 2.5625C10.7188 2.46875 11.0312 2.5 11.25 2.71875L15.75 6.96875Z" fill="#8993A0"/>
</svg>
