<svg width="16" height="15" viewBox="0 0 16 15" fill="none" xmlns="http://www.w3.org/2000/svg">
<path d="M10.75 6.96875C11.0625 7.25 11.0625 7.78125 10.75 8.0625L6.25 12.3125C6.03125 12.5312 5.71875 12.5625 5.4375 12.4688C5.15625 12.3438 5 12.0625 5 11.75V9.5H1C0.4375 9.5 0 9.0625 0 8.5V6.5C0 5.96875 0.4375 5.5 1 5.5H5V3.25C5 2.96875 5.15625 2.6875 5.4375 2.5625C5.71875 2.46875 6.03125 2.5 6.25 2.71875L10.75 6.96875ZM13 0.5C14.6562 0.5 16 1.84375 16 3.5V11.5C16 13.1875 14.6562 14.5 13 14.5H11C10.4375 14.5 10 14.0625 10 13.5C10 12.9688 10.4375 12.5 11 12.5H13C13.5312 12.5 14 12.0625 14 11.5V3.5C14 2.96875 13.5312 2.5 13 2.5H11C10.4375 2.5 10 2.0625 10 1.5C10 0.96875 10.4375 0.5 11 0.5H13Z" fill="#B4BFCE"/>
</svg>
