<svg width="5" height="15" viewBox="0 0 5 15" fill="none" xmlns="http://www.w3.org/2000/svg">
<path d="M2.5 5.28125C3.56641 5.28125 4.46875 6.18359 4.46875 7.25C4.46875 8.34375 3.56641 9.21875 2.5 9.21875C1.40625 9.21875 0.53125 8.34375 0.53125 7.25C0.53125 6.18359 1.40625 5.28125 2.5 5.28125ZM0.53125 2.4375C0.53125 1.37109 1.40625 0.46875 2.5 0.46875C3.56641 0.46875 4.46875 1.37109 4.46875 2.4375C4.46875 3.53125 3.56641 4.40625 2.5 4.40625C1.40625 4.40625 0.53125 3.53125 0.53125 2.4375ZM0.53125 12.0625C0.53125 10.9961 1.40625 10.0938 2.5 10.0938C3.56641 10.0938 4.46875 10.9961 4.46875 12.0625C4.46875 13.1562 3.56641 14.0312 2.5 14.0312C1.40625 14.0312 0.53125 13.1562 0.53125 12.0625Z" fill="#8993A0"/>
</svg>
