<svg width="12" height="13" viewBox="0 0 12 13" fill="none" xmlns="http://www.w3.org/2000/svg">
<path d="M2.4375 5.75C2.74219 5.75 3 6.00781 3 6.3125V11.9375C3 12.2656 2.74219 12.5 2.4375 12.5H0.5625C0.234375 12.5 0 12.2656 0 11.9375V6.3125C0 6.00781 0.234375 5.75 0.5625 5.75H2.4375ZM1.5 11.5625C1.80469 11.5625 2.0625 11.3281 2.0625 11C2.0625 10.6953 1.80469 10.4375 1.5 10.4375C1.17188 10.4375 0.9375 10.6953 0.9375 11C0.9375 11.3281 1.17188 11.5625 1.5 11.5625ZM9 2.42188C9 3.40625 8.39062 3.96875 8.20312 4.625H10.5938C11.3672 4.625 11.9766 5.28125 11.9766 6.00781C12 6.42969 11.8125 6.875 11.5312 7.15625C11.7656 7.69531 11.7188 8.46875 11.3203 9.00781C11.5078 9.61719 11.3203 10.3672 10.9219 10.7656C11.0391 11.1875 10.9922 11.5391 10.7812 11.8203C10.3125 12.5 9.11719 12.5 8.10938 12.5H8.03906C6.91406 12.5 6 12.1016 5.25 11.7734C4.875 11.6094 4.38281 11.3984 4.00781 11.3984C3.86719 11.375 3.75 11.2578 3.75 11.1172V6.10156C3.75 6.03125 3.77344 5.96094 3.82031 5.89062C4.75781 4.97656 5.15625 4.01562 5.90625 3.24219C6.25781 2.89062 6.375 2.375 6.51562 1.85938C6.60938 1.4375 6.82031 0.5 7.3125 0.5C7.875 0.5 9 0.6875 9 2.42188Z" fill="#677485"/>
</svg>
