<svg width="16" height="24" viewBox="0 0 16 24" fill="none" xmlns="http://www.w3.org/2000/svg">
<path d="M4.71875 8.55078L8.875 7.375L12.375 10.875L11.1992 15.0312C11.0352 15.5781 10.5977 16.043 10.0508 16.207L2.42188 18.75L2.01172 18.3672L6.11328 14.2656C6.27734 14.3477 6.46875 14.375 6.6875 14.375C7.39844 14.375 8 13.8008 8 13.0625C8 12.3516 7.39844 11.75 6.6875 11.75C5.94922 11.75 5.375 12.3516 5.375 13.0625C5.375 13.2812 5.40234 13.4727 5.48438 13.6367L1.38281 17.7383L1 17.3281L3.54297 9.69922C3.70703 9.15234 4.17188 8.71484 4.71875 8.55078ZM14.5898 6.80078C15.1094 7.29297 15.1094 8.14062 14.5898 8.66016L13.0586 10.1914L9.55859 6.69141L11.0898 5.16016C11.6094 4.64062 12.457 4.64062 12.9492 5.16016L14.5898 6.80078Z" fill="#94A0B0"/>
</svg>
