<svg width="11" height="11" viewBox="0 0 11 11" fill="none" xmlns="http://www.w3.org/2000/svg">
<path d="M9.375 10.75H1.125C0.492188 10.75 0 10.2578 0 9.625V1.375C0 0.765625 0.492188 0.25 1.125 0.25H9.375C9.98438 0.25 10.5 0.765625 10.5 1.375V9.625C10.5 10.2578 9.98438 10.75 9.375 10.75ZM4.57031 8.45312L8.88281 4.14062C9.02344 4 9.02344 3.76562 8.88281 3.625L8.34375 3.08594C8.20312 2.94531 7.96875 2.94531 7.82812 3.08594L4.3125 6.60156L2.64844 4.96094C2.50781 4.82031 2.27344 4.82031 2.13281 4.96094L1.59375 5.5C1.45312 5.64062 1.45312 5.875 1.59375 6.01562L4.03125 8.45312C4.17188 8.61719 4.42969 8.61719 4.57031 8.45312Z" fill="#40FF81"/>
</svg>
