<svg width="13" height="12" viewBox="0 0 13 12" fill="none" xmlns="http://www.w3.org/2000/svg">
<path d="M7 0.75C10.3047 0.75 13 2.95312 13 5.625C13 8.32031 10.3047 10.5 7 10.5C6.08594 10.5 5.24219 10.3359 4.46875 10.0547C3.90625 10.5234 2.73438 11.25 1.1875 11.25C1.09375 11.25 1.04688 11.2266 1 11.1562C0.976562 11.0859 1 10.9922 1.04688 10.9453C1.04688 10.9219 2.03125 9.89062 2.33594 8.69531C1.49219 7.85156 1 6.79688 1 5.625C1 2.95312 3.67188 0.75 7 0.75ZM4 6.375C4.39844 6.375 4.75 6.04688 4.75 5.625C4.75 5.22656 4.39844 4.875 4 4.875C3.57812 4.875 3.25 5.22656 3.25 5.625C3.25 6.04688 3.57812 6.375 4 6.375ZM7 6.375C7.39844 6.375 7.75 6.04688 7.75 5.625C7.75 5.22656 7.39844 4.875 7 4.875C6.57812 4.875 6.25 5.22656 6.25 5.625C6.25 6.04688 6.57812 6.375 7 6.375ZM10 6.375C10.3984 6.375 10.75 6.04688 10.75 5.625C10.75 5.22656 10.3984 4.875 10 4.875C9.57812 4.875 9.25 5.22656 9.25 5.625C9.25 6.04688 9.57812 6.375 10 6.375Z" fill="#4D535B"/>
</svg>
