<svg width="6" height="20" viewBox="0 0 6 20" fill="none" xmlns="http://www.w3.org/2000/svg">
<path d="M3 7.1875C4.52344 7.1875 5.8125 8.47656 5.8125 10C5.8125 11.5625 4.52344 12.8125 3 12.8125C1.4375 12.8125 0.1875 11.5625 0.1875 10C0.1875 8.47656 1.4375 7.1875 3 7.1875ZM0.1875 3.125C0.1875 1.60156 1.4375 0.3125 3 0.3125C4.52344 0.3125 5.8125 1.60156 5.8125 3.125C5.8125 4.6875 4.52344 5.9375 3 5.9375C1.4375 5.9375 0.1875 4.6875 0.1875 3.125ZM0.1875 16.875C0.1875 15.3516 1.4375 14.0625 3 14.0625C4.52344 14.0625 5.8125 15.3516 5.8125 16.875C5.8125 18.4375 4.52344 19.6875 3 19.6875C1.4375 19.6875 0.1875 18.4375 0.1875 16.875Z" fill="#8993A0"/>
</svg>
