<svg width="18" height="18" viewBox="0 0 18 18" fill="none" xmlns="http://www.w3.org/2000/svg">
<path d="M17.7188 9.25C17.7188 14.0664 13.7812 17.9688 9 17.9688C4.18359 17.9688 0.28125 14.0664 0.28125 9.25C0.28125 4.46875 4.18359 0.53125 9 0.53125C13.7812 0.53125 17.7188 4.46875 17.7188 9.25ZM9 11.0078C8.08594 11.0078 7.38281 11.7461 7.38281 12.625C7.38281 13.5391 8.08594 14.2422 9 14.2422C9.87891 14.2422 10.6172 13.5391 10.6172 12.625C10.6172 11.7461 9.87891 11.0078 9 11.0078ZM7.45312 5.20703L7.69922 9.98828C7.73438 10.2344 7.91016 10.375 8.12109 10.375H9.84375C10.0547 10.375 10.2305 10.2344 10.2656 9.98828L10.5117 5.20703C10.5469 4.96094 10.3359 4.75 10.0898 4.75H7.875C7.62891 4.75 7.41797 4.96094 7.45312 5.20703Z" fill="#FF9999"/>
</svg>
