<svg width="11" height="13" viewBox="0 0 11 13" fill="none" xmlns="http://www.w3.org/2000/svg">
<path d="M7.57031 1.71875C9.28125 3.28906 10.5 5.86719 10.5 7.10938C10.5 10.0859 8.13281 12.5 5.25 12.5C2.34375 12.5 0 10.0859 0 7.10938C0 5.42188 1.61719 2.65625 3.9375 0.5C4.82812 1.34375 5.625 2.23438 6.25781 3.125C6.63281 2.63281 7.07812 2.16406 7.57031 1.71875ZM7.125 9.6875C8.27344 8.89062 8.53125 7.32031 7.89844 6.10156C7.82812 5.96094 7.73438 5.79688 7.64062 5.63281L6.25781 7.20312C6.25781 7.20312 4.10156 4.4375 3.9375 4.25C2.8125 5.63281 2.25 6.42969 2.25 7.32031C2.25 9.14844 3.60938 10.25 5.29688 10.25C5.97656 10.25 6.60938 10.0625 7.125 9.6875Z" fill="#D9B3FF"/>
</svg>
