<svg width="283" height="160" viewBox="0 0 283 160" fill="none" xmlns="http://www.w3.org/2000/svg">
<rect x="0.769287" width="282.231" height="160" rx="12" fill="#292A2E"/>
<path d="M155.057 63.6719C155.9 65.1719 154.822 67 153.088 67H130.635C128.9 67 127.822 65.125 128.666 63.6719L139.916 44.125C140.76 42.625 142.963 42.6719 143.807 44.125L155.057 63.6719ZM141.885 59.5938C140.666 59.5938 139.729 60.5781 139.729 61.75C139.729 62.9688 140.666 63.9062 141.885 63.9062C143.057 63.9062 144.041 62.9688 144.041 61.75C144.041 60.5781 143.057 59.5938 141.885 59.5938ZM139.822 51.8594L140.15 58.2344C140.197 58.5625 140.432 58.75 140.713 58.75H143.01C143.291 58.75 143.525 58.5625 143.572 58.2344L143.9 51.8594C143.947 51.5312 143.666 51.25 143.338 51.25H140.385C140.057 51.25 139.775 51.5312 139.822 51.8594Z" fill="#4D535B"/>
<path d="M101.663 95.292H99.8927V82.8027H101.663V95.292ZM94.9025 83.6846C95.5268 83.6846 96.0874 83.8669 96.5841 84.2314C97.0854 84.596 97.4751 85.1133 97.753 85.7832C98.0356 86.4531 98.1769 87.2324 98.1769 88.1211C98.1769 89.0143 98.0356 89.7959 97.753 90.4658C97.4751 91.1357 97.0854 91.653 96.5841 92.0176C96.0874 92.3776 95.5268 92.5576 94.9025 92.5576C94.269 92.5576 93.7016 92.3776 93.2003 92.0176C92.7036 91.653 92.3139 91.1357 92.0314 90.4658C91.7488 89.7959 91.6075 89.0143 91.6075 88.1211C91.6075 87.2324 91.7488 86.4531 92.0314 85.7832C92.3139 85.1133 92.7036 84.596 93.2003 84.2314C93.7016 83.8669 94.269 83.6846 94.9025 83.6846ZM94.9025 85.2637C94.5835 85.2591 94.3009 85.3685 94.0548 85.5918C93.8133 85.8105 93.6264 86.1364 93.4943 86.5693C93.3667 86.9977 93.3029 87.515 93.3029 88.1211C93.3029 88.7272 93.3667 89.2445 93.4943 89.6729C93.6264 90.1012 93.8133 90.4271 94.0548 90.6504C94.3009 90.8691 94.5835 90.9785 94.9025 90.9785C95.2169 90.9785 95.4949 90.8691 95.7364 90.6504C95.978 90.4271 96.1648 90.1012 96.297 89.6729C96.4292 89.2445 96.4952 88.7272 96.4952 88.1211C96.4952 87.515 96.4292 86.9977 96.297 86.5693C96.1648 86.1364 95.978 85.8105 95.7364 85.5918C95.4995 85.3685 95.2215 85.2591 94.9025 85.2637ZM109.843 92.291H103.827V83.9443H109.843V92.291ZM105.563 90.9102H108.14V85.3047H105.563V90.9102ZM113.623 95.292H111.852V82.8027H113.623V95.292ZM119.621 86.2002C119.621 87.18 119.482 88.1143 119.204 89.0029C118.931 89.887 118.528 90.6732 117.995 91.3613C117.461 92.0495 116.819 92.569 116.067 92.9199L115.069 91.5459C115.739 91.2406 116.308 90.8053 116.778 90.2402C117.252 89.6751 117.607 89.0439 117.844 88.3467C118.086 87.6449 118.206 86.9294 118.206 86.2002V84.751H119.621V86.2002ZM119.984 86.2002C119.984 86.8929 120.102 87.5697 120.339 88.2305C120.576 88.8913 120.929 89.4883 121.399 90.0215C121.868 90.5501 122.438 90.9535 123.108 91.2314L122.164 92.5986C121.394 92.266 120.743 91.776 120.209 91.1289C119.676 90.4818 119.275 89.7367 119.006 88.8936C118.742 88.0459 118.61 87.1481 118.61 86.2002V84.751H119.984V86.2002ZM122.595 85.4414H115.568V84.0195H122.595V85.4414ZM125.582 95.2578H123.812V82.8027H125.582V95.2578ZM139.713 86.9727H136.568V85.5781H139.713V86.9727ZM133.697 83.3428C134.308 83.3382 134.864 83.4635 135.365 83.7188C135.866 83.9694 136.263 84.3203 136.554 84.7715C136.846 85.2227 136.992 85.7285 136.992 86.2891C136.992 86.8587 136.846 87.3714 136.554 87.8271C136.263 88.2783 135.866 88.6315 135.365 88.8867C134.868 89.1419 134.312 89.2695 133.697 89.2695C133.063 89.2695 132.494 89.1419 131.988 88.8867C131.487 88.6315 131.092 88.2783 130.805 87.8271C130.523 87.3714 130.382 86.8587 130.382 86.2891C130.382 85.7285 130.523 85.2227 130.805 84.7715C131.092 84.3203 131.489 83.9694 131.995 83.7188C132.501 83.4635 133.068 83.3382 133.697 83.3428ZM133.697 84.7988C133.373 84.7943 133.086 84.8512 132.836 84.9697C132.585 85.0882 132.389 85.2614 132.248 85.4893C132.106 85.7126 132.036 85.9792 132.036 86.2891C132.036 86.5944 132.106 86.8633 132.248 87.0957C132.389 87.3236 132.585 87.5013 132.836 87.6289C133.086 87.752 133.373 87.8135 133.697 87.8135C134.016 87.8135 134.299 87.752 134.545 87.6289C134.791 87.5013 134.982 87.3236 135.119 87.0957C135.256 86.8633 135.324 86.5944 135.324 86.2891C135.324 85.9837 135.256 85.7171 135.119 85.4893C134.982 85.2614 134.791 85.0882 134.545 84.9697C134.299 84.8512 134.016 84.7943 133.697 84.7988ZM140.711 89.5088H138.974V82.8027H140.711V89.5088ZM134.134 91.2451H138.974V90.0488H140.711V95.1211H132.412V90.0488H134.134V91.2451ZM138.974 93.7129V92.5918H134.134V93.7129H138.974ZM153.566 93.877H142.191V92.4482H153.566V93.877ZM148.712 93.043H146.996V90.0898H148.712V93.043ZM152.253 87.7451H145.24V89.8711H143.503V86.3779H150.531V85.0244H143.483V83.623H152.253V87.7451ZM152.547 90.5615H143.503V89.1465H152.547V90.5615ZM164.281 89.9736H155.49V88.5791H164.281V89.9736ZM165.525 93.7471H154.15V92.3115H165.525V93.7471ZM164.192 85.2637H157.213V89.1602H155.49V83.8555H164.192V85.2637ZM179.601 89.1055H177.871V82.8027H179.601V89.1055ZM179.614 93.0225H173.004V94.3076H171.302V91.7305H177.878V91.0059H171.275V89.6523H179.614V93.0225ZM179.956 95.1689H171.302V93.8018H179.956V95.1689ZM173.613 84.04C173.613 84.8285 173.476 85.5645 173.202 86.248C172.929 86.9316 172.523 87.5286 171.986 88.0391C171.448 88.5449 170.789 88.9141 170.01 89.1465L169.149 87.7793C169.819 87.5742 170.379 87.2803 170.83 86.8975C171.281 86.5101 171.616 86.0703 171.835 85.5781C172.054 85.0814 172.163 84.5687 172.163 84.04V83.0898H173.613V84.04ZM173.975 84.04C173.975 84.5641 174.077 85.0586 174.282 85.5234C174.492 85.9883 174.816 86.4007 175.253 86.7607C175.695 87.1208 176.247 87.3965 176.907 87.5879L176.053 88.9346C175.283 88.7021 174.633 88.3467 174.105 87.8682C173.576 87.3851 173.177 86.8177 172.908 86.166C172.644 85.5098 172.512 84.8011 172.512 84.04V83.0898H173.975V84.04ZM191.95 95.2578H190.275V82.8027H191.95V95.2578ZM190.829 89.0234H188.724V87.6084H190.829V89.0234ZM189.25 94.6562H187.609V83.0283H189.25V94.6562ZM187.001 85.626H181.259V84.2246H187.001V85.626ZM181.033 90.9854C182.141 90.9854 183.223 90.9671 184.28 90.9307C185.337 90.8896 186.281 90.8122 187.11 90.6982L187.213 91.9629C186.365 92.1361 185.422 92.2546 184.383 92.3184C183.348 92.3776 182.295 92.4072 181.224 92.4072L181.033 90.9854ZM183.651 91.3818H182.072V85.127H183.651V91.3818ZM186.201 91.3818H184.629V85.127H186.201V91.3818Z" fill="#8993A0"/>
<path d="M69.0938 114.969H68.0039V112.408H69.0938V114.969ZM68.5547 107.129C69.2969 107.129 69.9629 107.246 70.5527 107.48C71.1426 107.711 71.6016 108.039 71.9297 108.465C72.2617 108.887 72.4277 109.373 72.4277 109.924C72.4277 110.482 72.2617 110.973 71.9297 111.395C71.6016 111.816 71.1426 112.145 70.5527 112.379C69.9629 112.609 69.2969 112.725 68.5547 112.725C67.8086 112.725 67.1406 112.609 66.5508 112.379C65.9648 112.145 65.5059 111.816 65.1738 111.395C64.8418 110.973 64.6758 110.482 64.6758 109.924C64.6758 109.373 64.8418 108.887 65.1738 108.465C65.5059 108.039 65.9648 107.711 66.5508 107.48C67.1406 107.246 67.8086 107.129 68.5547 107.129ZM68.5547 108.031C68.0195 108.031 67.5391 108.109 67.1133 108.266C66.6875 108.422 66.3555 108.645 66.1172 108.934C65.8828 109.219 65.7656 109.549 65.7656 109.924C65.7656 110.303 65.8828 110.637 66.1172 110.926C66.3555 111.215 66.6855 111.438 67.1074 111.594C67.5293 111.75 68.0117 111.83 68.5547 111.834C69.0977 111.83 69.5781 111.75 69.9961 111.594C70.418 111.438 70.748 111.215 70.9863 110.926C71.2246 110.637 71.3438 110.303 71.3438 109.924C71.3438 109.549 71.2246 109.219 70.9863 108.934C70.748 108.645 70.418 108.422 69.9961 108.266C69.5742 108.109 69.0938 108.031 68.5547 108.031ZM73.377 115.684H63.7676V114.764H73.377V115.684ZM83.7363 113.609H74.127V112.725H83.7363V113.609ZM77.666 116.99H76.5527V113.199H77.666V116.99ZM81.3164 116.99H80.2031V113.199H81.3164V116.99ZM82.5938 109.689H76.4121V111.441H75.293V108.846H81.457V107.785H75.2695V106.871H82.5938V109.689ZM82.8223 111.752H75.293V110.844H82.8223V111.752ZM94.1191 115.736H84.5098V114.816H94.1191V115.736ZM89.8359 115.209H88.7461V112.648H89.8359V115.209ZM92.9414 110.516H86.7891V112.531H85.6816V109.625H91.8457V108.148H85.6641V107.24H92.9414V110.516ZM93.1875 112.965H85.6816V112.051H93.1875V112.965ZM106.518 114.137H105.41V106.502H106.518V114.137ZM106.834 116.785H99.6562V115.865H106.834V116.785ZM100.77 116.199H99.6562V113.363H100.77V116.199ZM100.822 107.211C101.346 107.211 101.82 107.322 102.246 107.545C102.676 107.764 103.012 108.072 103.254 108.471C103.496 108.865 103.617 109.312 103.617 109.812C103.617 110.32 103.496 110.771 103.254 111.166C103.012 111.561 102.676 111.869 102.246 112.092C101.82 112.314 101.346 112.426 100.822 112.426C100.299 112.426 99.8242 112.314 99.3984 112.092C98.9766 111.869 98.6426 111.561 98.3965 111.166C98.1504 110.771 98.0273 110.32 98.0273 109.812C98.0273 109.312 98.1504 108.865 98.3965 108.471C98.6426 108.072 98.9766 107.764 99.3984 107.545C99.8242 107.322 100.299 107.211 100.822 107.211ZM100.822 108.184C100.502 108.184 100.211 108.252 99.9492 108.389C99.6875 108.525 99.4824 108.717 99.334 108.963C99.1895 109.209 99.1172 109.492 99.1172 109.812C99.1172 110.133 99.1895 110.418 99.334 110.668C99.4824 110.918 99.6875 111.111 99.9492 111.248C100.211 111.385 100.502 111.453 100.822 111.453C101.143 111.453 101.432 111.385 101.689 111.248C101.947 111.111 102.15 110.918 102.299 110.668C102.447 110.418 102.521 110.133 102.521 109.812C102.521 109.492 102.447 109.209 102.299 108.963C102.15 108.717 101.947 108.525 101.689 108.389C101.432 108.252 101.143 108.184 100.822 108.184ZM113.367 109.133H108.158V108.236H113.367V109.133ZM110.771 109.76C111.213 109.76 111.605 109.863 111.949 110.07C112.297 110.273 112.568 110.559 112.764 110.926C112.959 111.293 113.057 111.713 113.057 112.186C113.057 112.654 112.959 113.074 112.764 113.445C112.568 113.812 112.297 114.102 111.949 114.312C111.605 114.523 111.213 114.629 110.771 114.629C110.334 114.629 109.941 114.523 109.594 114.312C109.25 114.102 108.98 113.811 108.785 113.439C108.594 113.068 108.498 112.65 108.498 112.186C108.498 111.721 108.594 111.303 108.785 110.932C108.98 110.561 109.25 110.273 109.594 110.07C109.941 109.863 110.334 109.76 110.771 109.76ZM110.771 110.691C110.525 110.691 110.303 110.756 110.104 110.885C109.908 111.01 109.756 111.186 109.646 111.412C109.537 111.635 109.482 111.893 109.482 112.186C109.482 112.475 109.537 112.732 109.646 112.959C109.76 113.186 109.914 113.359 110.109 113.48C110.305 113.602 110.525 113.662 110.771 113.662C111.021 113.662 111.244 113.602 111.439 113.48C111.639 113.359 111.795 113.186 111.908 112.959C112.021 112.732 112.078 112.475 112.078 112.186C112.078 111.893 112.021 111.635 111.908 111.412C111.795 111.186 111.639 111.01 111.439 110.885C111.244 110.756 111.021 110.691 110.771 110.691ZM117.17 116.99H116.109V106.49H117.17V116.99ZM116.461 111.775H114.539V110.867H116.461V111.775ZM114.902 116.498H113.854V106.736H114.902V116.498ZM111.328 108.793H110.227V106.801H111.328V108.793ZM129.598 109.854H126.82V108.945H129.598V109.854ZM124.389 106.971C124.908 106.963 125.375 107.064 125.789 107.275C126.203 107.482 126.529 107.773 126.768 108.148C127.006 108.52 127.125 108.941 127.125 109.414C127.125 109.891 127.006 110.316 126.768 110.691C126.529 111.062 126.203 111.354 125.789 111.564C125.375 111.771 124.908 111.875 124.389 111.875C123.857 111.875 123.383 111.771 122.965 111.564C122.551 111.354 122.225 111.062 121.986 110.691C121.752 110.316 121.635 109.891 121.635 109.414C121.635 108.941 121.752 108.52 121.986 108.148C122.225 107.773 122.553 107.482 122.971 107.275C123.393 107.064 123.865 106.963 124.389 106.971ZM124.389 107.908C124.061 107.904 123.768 107.965 123.51 108.09C123.256 108.215 123.057 108.393 122.912 108.623C122.768 108.85 122.695 109.113 122.695 109.414C122.695 109.711 122.768 109.977 122.912 110.211C123.057 110.441 123.256 110.621 123.51 110.75C123.768 110.879 124.061 110.943 124.389 110.943C124.713 110.943 125.002 110.879 125.256 110.75C125.51 110.621 125.707 110.441 125.848 110.211C125.988 109.977 126.059 109.711 126.059 109.414C126.059 109.113 125.988 108.85 125.848 108.623C125.707 108.393 125.51 108.215 125.256 108.09C125.002 107.965 124.713 107.904 124.389 107.908ZM130.236 112.133H129.123V106.49H130.236V112.133ZM124.5 113.861H129.123V112.637H130.236V116.861H123.387V112.637H124.5V113.861ZM129.123 115.959V114.74H124.5V115.959H129.123ZM141.463 115.736H131.854V114.816H141.463V115.736ZM137.18 115.209H136.09V112.648H137.18V115.209ZM140.285 110.516H134.133V112.531H133.025V109.625H139.189V108.148H133.008V107.24H140.285V110.516ZM140.531 112.965H133.025V112.051H140.531V112.965ZM150.732 112.391H143.42V111.482H150.732V112.391ZM151.834 115.613H142.225V114.688H151.834V115.613ZM150.633 108.348H144.521V111.875H143.42V107.439H150.633V108.348ZM158.807 111.424H156.873V110.516H158.807V111.424ZM161.631 116.99H160.559V106.49H161.631V116.99ZM159.492 116.475H158.438V106.689H159.492V116.475ZM154.98 107.328C155.438 107.328 155.838 107.479 156.182 107.779C156.525 108.076 156.791 108.504 156.979 109.062C157.17 109.621 157.266 110.277 157.266 111.031C157.266 111.777 157.17 112.43 156.979 112.988C156.791 113.547 156.525 113.979 156.182 114.283C155.838 114.584 155.438 114.736 154.98 114.74C154.527 114.736 154.129 114.584 153.785 114.283C153.441 113.979 153.176 113.547 152.988 112.988C152.805 112.43 152.713 111.777 152.713 111.031C152.713 110.277 152.805 109.621 152.988 109.062C153.176 108.504 153.441 108.076 153.785 107.779C154.129 107.479 154.527 107.328 154.98 107.328ZM154.98 108.383C154.723 108.379 154.502 108.482 154.318 108.693C154.135 108.904 153.994 109.209 153.896 109.607C153.799 110.002 153.75 110.477 153.75 111.031C153.75 111.578 153.799 112.051 153.896 112.449C153.994 112.848 154.137 113.152 154.324 113.363C154.512 113.57 154.73 113.674 154.98 113.674C155.234 113.674 155.455 113.57 155.643 113.363C155.83 113.152 155.975 112.848 156.076 112.449C156.178 112.051 156.229 111.578 156.229 111.031C156.229 110.477 156.178 110.002 156.076 109.607C155.975 109.209 155.83 108.904 155.643 108.693C155.455 108.482 155.234 108.379 154.98 108.383ZM174.592 111.893H173.496V106.49H174.592V111.893ZM174.604 115.027H168.82V116.363H167.73V114.178H173.502V113.275H167.707V112.396H174.604V115.027ZM174.955 116.891H167.73V116H174.955V116.891ZM169.506 107.574C169.506 108.223 169.383 108.832 169.137 109.402C168.891 109.973 168.541 110.469 168.088 110.891C167.635 111.312 167.104 111.627 166.494 111.834L165.926 110.955C166.469 110.771 166.939 110.51 167.338 110.17C167.736 109.826 168.043 109.43 168.258 108.98C168.473 108.527 168.58 108.059 168.58 107.574V106.771H169.506V107.574ZM169.723 107.574C169.723 108.047 169.826 108.496 170.033 108.922C170.244 109.348 170.547 109.721 170.941 110.041C171.336 110.361 171.799 110.607 172.33 110.779L171.785 111.641C171.18 111.438 170.65 111.137 170.197 110.738C169.748 110.34 169.4 109.869 169.154 109.326C168.908 108.783 168.785 108.199 168.785 107.574V106.771H169.723V107.574ZM185.303 116.99H184.23V106.49H185.303V116.99ZM184.617 111.588H182.654V110.668H184.617V111.588ZM182.994 116.463H181.939V106.707H182.994V116.463ZM181.248 108.688H176.367V107.779H181.248V108.688ZM176.15 113.527C177.084 113.527 178.016 113.512 178.945 113.48C179.875 113.445 180.699 113.379 181.418 113.281L181.482 114.096C180.748 114.236 179.926 114.332 179.016 114.383C178.105 114.434 177.195 114.459 176.285 114.459L176.15 113.527ZM178.23 113.791H177.205V108.365H178.23V113.791ZM180.416 113.791H179.396V108.365H180.416V113.791ZM195.592 113H194.531V106.502H195.592V113ZM194.83 110.24H192.902V109.332H194.83V110.24ZM193.348 112.848H192.299V106.66H193.348V112.848ZM191.889 108.535H186.58V107.627H191.889V108.535ZM189.246 108.998C189.688 108.998 190.08 109.072 190.424 109.221C190.771 109.365 191.041 109.574 191.232 109.848C191.424 110.121 191.52 110.439 191.52 110.803C191.52 111.158 191.424 111.473 191.232 111.746C191.041 112.02 190.771 112.232 190.424 112.385C190.08 112.537 189.688 112.613 189.246 112.613C188.816 112.613 188.43 112.537 188.086 112.385C187.742 112.232 187.475 112.02 187.283 111.746C187.092 111.473 186.996 111.158 186.996 110.803C186.996 110.443 187.092 110.127 187.283 109.854C187.475 109.576 187.74 109.365 188.08 109.221C188.42 109.072 188.809 108.998 189.246 108.998ZM189.246 109.812C189 109.812 188.781 109.854 188.59 109.936C188.398 110.014 188.25 110.127 188.145 110.275C188.039 110.424 187.986 110.6 187.986 110.803C187.986 110.998 188.039 111.172 188.145 111.324C188.254 111.477 188.402 111.594 188.59 111.676C188.781 111.754 189 111.793 189.246 111.793C189.496 111.793 189.717 111.754 189.908 111.676C190.1 111.594 190.248 111.477 190.354 111.324C190.459 111.172 190.512 110.998 190.512 110.803C190.512 110.6 190.459 110.424 190.354 110.275C190.248 110.127 190.1 110.014 189.908 109.936C189.721 109.854 189.5 109.812 189.246 109.812ZM189.797 108.207H188.689V106.543H189.797V108.207ZM190.23 113.621C190.23 114.086 190.135 114.531 189.943 114.957C189.756 115.383 189.48 115.764 189.117 116.1C188.758 116.436 188.324 116.693 187.816 116.873L187.283 116.029C187.713 115.889 188.086 115.689 188.402 115.432C188.719 115.174 188.959 114.887 189.123 114.57C189.287 114.254 189.369 113.938 189.369 113.621V113.305H190.23V113.621ZM190.465 113.621C190.465 113.961 190.531 114.293 190.664 114.617C190.801 114.938 191.008 115.23 191.285 115.496C191.562 115.758 191.904 115.967 192.311 116.123L191.848 116.961C191.352 116.777 190.938 116.512 190.605 116.164C190.273 115.82 190.027 115.43 189.867 114.992C189.707 114.555 189.627 114.098 189.627 113.621V113.305H190.465V113.621ZM194.062 113.621C194.062 114.047 193.98 114.48 193.816 114.922C193.656 115.363 193.408 115.766 193.072 116.129C192.74 116.496 192.332 116.773 191.848 116.961L191.379 116.123C191.781 115.955 192.121 115.732 192.398 115.455C192.676 115.174 192.885 114.873 193.025 114.553C193.17 114.232 193.242 113.922 193.242 113.621V113.305H194.062V113.621ZM194.338 113.621C194.338 113.961 194.418 114.291 194.578 114.611C194.738 114.932 194.977 115.217 195.293 115.467C195.609 115.717 195.986 115.904 196.424 116.029L195.902 116.873C195.387 116.701 194.949 116.451 194.59 116.123C194.23 115.795 193.957 115.416 193.77 114.986C193.582 114.557 193.488 114.102 193.488 113.621V113.305H194.338V113.621ZM199.857 107.281C200.373 107.281 200.83 107.434 201.229 107.738C201.631 108.043 201.945 108.473 202.172 109.027C202.398 109.582 202.512 110.229 202.512 110.967C202.512 111.709 202.398 112.357 202.172 112.912C201.945 113.467 201.631 113.896 201.229 114.201C200.83 114.502 200.373 114.652 199.857 114.652C199.342 114.652 198.881 114.502 198.475 114.201C198.072 113.9 197.758 113.473 197.531 112.918C197.305 112.359 197.191 111.709 197.191 110.967C197.191 110.229 197.305 109.582 197.531 109.027C197.758 108.473 198.072 108.043 198.475 107.738C198.881 107.434 199.342 107.281 199.857 107.281ZM199.857 108.277C199.545 108.277 199.266 108.387 199.02 108.605C198.773 108.824 198.584 109.137 198.451 109.543C198.322 109.945 198.258 110.42 198.258 110.967C198.258 111.51 198.322 111.984 198.451 112.391C198.584 112.797 198.773 113.109 199.02 113.328C199.266 113.543 199.545 113.65 199.857 113.65C200.17 113.65 200.449 113.543 200.695 113.328C200.941 113.109 201.131 112.797 201.264 112.391C201.396 111.984 201.463 111.51 201.463 110.967C201.463 110.42 201.395 109.945 201.258 109.543C201.125 109.137 200.938 108.824 200.695 108.605C200.457 108.387 200.178 108.277 199.857 108.277ZM205.77 117.02H204.662V106.49H205.77V117.02ZM205.148 111.342H202.16V110.434H205.148V111.342ZM210.779 114.963H209.684V111.887H210.779V114.963ZM214.693 114.963H213.574V111.887H214.693V114.963ZM216.99 115.684H207.381V114.764H216.99V115.684ZM212.168 107.1C212.918 107.1 213.586 107.215 214.172 107.445C214.758 107.672 215.215 107.994 215.543 108.412C215.875 108.826 216.041 109.303 216.041 109.842C216.041 110.385 215.875 110.863 215.543 111.277C215.215 111.688 214.758 112.008 214.172 112.238C213.586 112.465 212.918 112.578 212.168 112.578C211.422 112.578 210.754 112.465 210.164 112.238C209.578 112.008 209.119 111.688 208.787 111.277C208.455 110.863 208.289 110.385 208.289 109.842C208.289 109.303 208.455 108.826 208.787 108.412C209.119 107.994 209.578 107.672 210.164 107.445C210.754 107.215 211.422 107.1 212.168 107.1ZM212.168 108.002C211.621 107.998 211.137 108.072 210.715 108.225C210.297 108.373 209.969 108.588 209.73 108.869C209.496 109.146 209.379 109.471 209.379 109.842C209.379 110.213 209.496 110.539 209.73 110.82C209.969 111.102 210.299 111.32 210.721 111.477C211.143 111.633 211.625 111.711 212.168 111.711C212.707 111.711 213.188 111.633 213.609 111.477C214.031 111.32 214.361 111.102 214.6 110.82C214.838 110.539 214.957 110.213 214.957 109.842C214.957 109.471 214.838 109.146 214.6 108.869C214.365 108.588 214.037 108.373 213.615 108.225C213.193 108.072 212.711 107.998 212.168 108.002ZM218.947 116.082C218.799 116.082 218.66 116.043 218.531 115.965C218.402 115.887 218.301 115.785 218.227 115.66C218.156 115.531 218.121 115.393 218.121 115.244C218.121 115.1 218.156 114.963 218.227 114.834C218.301 114.705 218.402 114.605 218.531 114.535C218.66 114.461 218.799 114.424 218.947 114.424C219.092 114.424 219.229 114.461 219.357 114.535C219.486 114.605 219.588 114.705 219.662 114.834C219.736 114.963 219.773 115.1 219.773 115.244C219.773 115.393 219.736 115.531 219.662 115.66C219.588 115.785 219.486 115.887 219.357 115.965C219.229 116.043 219.092 116.082 218.947 116.082Z" fill="#8993A0"/>
</svg>
