<svg width="20" height="20" viewBox="0 0 20 20" fill="none" xmlns="http://www.w3.org/2000/svg">
<path d="M0 10C0 4.49219 4.45312 0 10 0C15.5078 0 20 4.49219 20 10C20 15.5469 15.5078 20 10 20C4.45312 20 0 15.5469 0 10ZM6.83594 8.16406L8.67188 10L6.83594 11.8359C6.44531 12.2266 6.44531 12.8125 6.83594 13.1641C7.1875 13.5547 7.77344 13.5547 8.125 13.1641L9.96094 11.3281L11.8359 13.1641C12.1875 13.5547 12.7734 13.5547 13.125 13.1641C13.5156 12.8125 13.5156 12.2266 13.125 11.8359L11.2891 10L13.125 8.16406C13.5156 7.8125 13.5156 7.22656 13.125 6.83594C12.7734 6.48438 12.1875 6.48438 11.8359 6.83594L9.96094 8.71094L8.125 6.83594C7.77344 6.48438 7.1875 6.48438 6.83594 6.83594C6.44531 7.22656 6.44531 7.8125 6.83594 8.16406Z" fill="#677485"/>
</svg>
