<svg width="20" height="24" viewBox="0 0 20 24" fill="none" xmlns="http://www.w3.org/2000/svg">
<path d="M12.5 13.75C11.7969 13.75 11.25 13.2031 11.25 12.5V10C11.25 9.33594 11.7969 8.75 12.5 8.75C13.1641 8.75 13.75 9.33594 13.75 10V12.5C13.75 13.2031 13.1641 13.75 12.5 13.75ZM10 12.0703C9.6875 11.9531 9.375 11.875 9.0625 11.875H7.5V8.75C7.5 8.08594 8.04688 7.5 8.75 7.5C9.41406 7.5 10 8.08594 10 8.75V12.0703ZM6.25 11.875H4.0625C3.94531 11.875 3.82812 11.9141 3.75 11.9141V3.75C3.75 3.08594 4.29688 2.5 5 2.5C5.66406 2.5 6.25 3.08594 6.25 3.75V11.875ZM16.25 10C16.9141 10 17.5 10.5859 17.5 11.25V13.75C17.5 14.4531 16.9141 15 16.25 15C15.5469 15 15 14.4531 15 13.75V11.25C15 10.5859 15.5469 10 16.25 10ZM13.8672 14.5703C14.2188 15.5469 15.1562 16.25 16.25 16.25C16.6797 16.25 17.1094 16.1328 17.5 15.9375V17.1875C17.5 20.1562 15.1172 22.5 12.1875 22.5H8.71094C7.57812 22.5 6.48438 22.1484 5.58594 21.4844L4.14062 20.4688C3.125 19.6875 2.5 18.4766 2.5 17.1875V14.6875C2.5 13.8281 3.16406 13.125 4.0625 13.125H9.0625C9.92188 13.125 10.5859 13.8281 10.5859 14.6875C10.5859 15.8203 9.53125 16.25 8.90625 16.25H6.21094C5.89844 16.25 5.625 16.5625 5.625 16.875C5.625 17.2266 5.89844 17.5 6.21094 17.5H9.0625C10.5078 17.5 11.7188 16.3672 11.8359 14.9219C12.0312 14.9609 12.2656 15 12.5 15C13.0078 15 13.4766 14.8438 13.8672 14.5703Z" fill="white"/>
</svg>
