<svg width="11" height="11" viewBox="0 0 11 11" fill="none" xmlns="http://www.w3.org/2000/svg">
<path d="M9.375 0.25C9.98438 0.25 10.5 0.765625 10.5 1.375V9.625C10.5 10.2578 9.98438 10.75 9.375 10.75H1.125C0.492188 10.75 0 10.2578 0 9.625V1.375C0 0.765625 0.492188 0.25 1.125 0.25H9.375ZM9.23438 9.625C9.30469 9.625 9.375 9.57812 9.375 9.48438V1.51562C9.375 1.44531 9.30469 1.375 9.23438 1.375H1.26562C1.17188 1.375 1.125 1.44531 1.125 1.51562V9.48438C1.125 9.57812 1.17188 9.625 1.26562 9.625H9.23438Z" fill="#8993A0"/>
</svg>
