<svg width="12" height="13" viewBox="0 0 12 13" fill="none" xmlns="http://www.w3.org/2000/svg">
<path d="M10.9219 7.22656C11.0156 7.76562 10.9453 8.28125 10.7109 8.70312C10.7812 9.26562 10.6172 9.85156 10.2891 10.2734C10.2656 11.5859 9.46875 12.5 7.66406 12.5C7.5 12.5 7.3125 12.5 7.125 12.5C4.73438 12.5 4.00781 11.6094 2.95312 11.5859C2.88281 11.8906 2.57812 12.125 2.25 12.125H0.75C0.328125 12.125 0 11.7969 0 11.375V5.75C0 5.35156 0.328125 5 0.75 5H3.04688C3.49219 4.625 4.125 3.59375 4.66406 3.05469C4.99219 2.72656 4.89844 0.5 6.35156 0.5C7.6875 0.5 8.57812 1.25 8.57812 2.96094C8.57812 3.40625 8.48438 3.75781 8.36719 4.0625H9.23438C10.3594 4.0625 11.25 5.02344 11.25 6.05469C11.25 6.5 11.1328 6.875 10.9219 7.22656ZM9.46875 8.49219C9.98438 8.02344 9.91406 7.29688 9.58594 6.94531C9.82031 6.94531 10.125 6.5 10.125 6.07812C10.1016 5.63281 9.72656 5.1875 9.23438 5.1875H6.79688C6.79688 4.29688 7.45312 3.875 7.45312 2.96094C7.45312 2.39844 7.45312 1.625 6.35156 1.625C5.90625 2.07031 6.11719 3.19531 5.46094 3.85156C4.82812 4.48438 3.91406 6.125 3.23438 6.125H3V10.5078C4.24219 10.5078 5.34375 11.375 7.00781 11.375H7.89844C8.71875 11.375 9.32812 10.9766 9.14062 9.85156C9.49219 9.64062 9.77344 8.98438 9.46875 8.49219ZM2.0625 10.625C2.0625 10.3203 1.80469 10.0625 1.5 10.0625C1.17188 10.0625 0.9375 10.3203 0.9375 10.625C0.9375 10.9531 1.17188 11.1875 1.5 11.1875C1.80469 11.1875 2.0625 10.9531 2.0625 10.625Z" fill="#B4BFCE"/>
</svg>
