<svg width="12" height="12" viewBox="0 0 12 12" fill="none" xmlns="http://www.w3.org/2000/svg">
<path d="M10.9219 6.72656C11.0156 7.26562 10.9453 7.78125 10.7109 8.20312C10.7812 8.76562 10.6172 9.35156 10.2891 9.77344C10.2656 11.0859 9.46875 12 7.66406 12C7.5 12 7.3125 12 7.125 12C4.73438 12 4.00781 11.1094 2.95312 11.0859C2.88281 11.3906 2.57812 11.625 2.25 11.625H0.75C0.328125 11.625 0 11.2969 0 10.875V5.25C0 4.85156 0.328125 4.5 0.75 4.5H3.04688C3.49219 4.125 4.125 3.09375 4.66406 2.55469C4.99219 2.22656 4.89844 0 6.35156 0C7.6875 0 8.57812 0.75 8.57812 2.46094C8.57812 2.90625 8.48438 3.25781 8.36719 3.5625H9.23438C10.3594 3.5625 11.25 4.52344 11.25 5.55469C11.25 6 11.1328 6.375 10.9219 6.72656ZM9.46875 7.99219C9.98438 7.52344 9.91406 6.79688 9.58594 6.44531C9.82031 6.44531 10.125 6 10.125 5.57812C10.1016 5.13281 9.72656 4.6875 9.23438 4.6875H6.79688C6.79688 3.79688 7.45312 3.375 7.45312 2.46094C7.45312 1.89844 7.45312 1.125 6.35156 1.125C5.90625 1.57031 6.11719 2.69531 5.46094 3.35156C4.82812 3.98438 3.91406 5.625 3.23438 5.625H3V10.0078C4.24219 10.0078 5.34375 10.875 7.00781 10.875H7.89844C8.71875 10.875 9.32812 10.4766 9.14062 9.35156C9.49219 9.14062 9.77344 8.48438 9.46875 7.99219ZM2.0625 10.125C2.0625 9.82031 1.80469 9.5625 1.5 9.5625C1.17188 9.5625 0.9375 9.82031 0.9375 10.125C0.9375 10.4531 1.17188 10.6875 1.5 10.6875C1.80469 10.6875 2.0625 10.4531 2.0625 10.125Z" fill="#4d535b"/>
</svg>
