<svg width="21" height="21" viewBox="0 0 21 21" fill="none" xmlns="http://www.w3.org/2000/svg">
<path opacity="0.8" d="M10.3848 0.8125C15.7363 0.8125 20.0723 5.14844 20.0723 10.5C20.0723 15.8516 15.7363 20.1875 10.3848 20.1875C5.0332 20.1875 0.697266 15.8516 0.697266 10.5C0.697266 5.14844 5.0332 0.8125 10.3848 0.8125ZM15.1113 13.0781L12.5723 10.5L15.1113 7.96094C15.3066 7.80469 15.3066 7.49219 15.1113 7.29688L13.5879 5.77344C13.3926 5.57812 13.0801 5.57812 12.9238 5.77344L10.3848 8.3125L7.8457 5.77344C7.65039 5.57812 7.33789 5.57812 7.18164 5.77344L5.61914 7.29688C5.42383 7.49219 5.42383 7.80469 5.61914 7.96094L8.19727 10.5L5.61914 13.0391C5.42383 13.2344 5.42383 13.5469 5.61914 13.7031L7.14258 15.2656C7.33789 15.4609 7.65039 15.4609 7.80664 15.2656L10.3848 12.6875L12.9238 15.2656C13.0801 15.4609 13.3926 15.4609 13.5879 15.2656L15.1113 13.7422C15.3066 13.5469 15.3066 13.2344 15.1113 13.0781Z" fill="#25CF5F"/>
</svg>
