<svg width="178" height="28" viewBox="0 0 178 28" fill="none" xmlns="http://www.w3.org/2000/svg">
<path d="M144.428 26.7204C138.952 26.7204 134.03 23.5007 131.531 18.6284C131.225 18.0321 130.921 17.4488 130.619 16.8785C129.065 13.9299 127.557 11.4196 126.096 9.34766C124.649 7.27569 123.241 5.68186 121.873 4.56619C120.828 3.70446 119.804 3.17161 118.798 2.96763C118.291 2.86482 117.868 2.45352 117.868 1.93637V1.93637C117.868 1.41923 118.287 1 118.805 1H152.295C152.812 1 153.231 1.41923 153.231 1.93637V1.93637C153.231 2.45352 152.812 2.86928 152.295 2.8985C151.945 2.91832 151.606 2.94958 151.279 2.99228C150.681 3.07197 150.156 3.21143 149.705 3.41066C149.267 3.60989 148.921 3.88217 148.669 4.2275C148.416 4.57283 148.29 5.01113 148.29 5.5424C148.29 5.86117 148.39 6.35924 148.589 7.03662C148.802 7.71399 149.087 8.51755 149.446 9.44728C149.818 10.377 150.243 11.4064 150.721 12.5353C151.212 13.651 151.737 14.8132 152.295 16.0218C152.866 17.2172 153.457 18.4325 154.068 19.6677C154.404 20.326 154.739 20.9708 155.071 21.6021C155.451 22.3234 156.444 22.354 156.837 21.64V21.64C157.196 20.9892 157.581 20.2587 157.993 19.4485C158.404 18.6251 158.829 17.7551 159.268 16.8386C159.719 15.9089 160.151 14.9792 160.563 14.0495C160.988 13.1064 161.386 12.19 161.758 11.3001C162.143 10.4102 162.475 9.59338 162.754 8.84959C163.046 8.09253 163.272 7.43507 163.432 6.87723C163.604 6.31939 163.691 5.90766 163.691 5.64202C163.691 5.17715 163.604 4.77206 163.432 4.42673C163.272 4.0814 163 3.79584 162.615 3.57004C162.23 3.33097 161.725 3.15831 161.101 3.05205C160.699 2.97513 160.234 2.92296 159.706 2.89553C159.189 2.86872 158.77 2.45352 158.77 1.93637V1.93637C158.77 1.41923 159.189 1 159.706 1H175.804C176.321 1 176.74 1.41923 176.74 1.93637V1.93637C176.74 2.45352 176.32 2.86788 175.805 2.91364C174.863 2.99733 173.966 3.20949 173.114 3.55012C171.998 3.98842 170.929 4.65252 169.907 5.5424C168.884 6.43229 167.894 7.54797 166.938 8.88944C165.982 10.2176 165.019 11.765 164.049 13.5315C163.093 15.2979 162.11 17.2836 161.101 19.4884V19.4884C159.123 23.8383 154.843 26.7204 150.065 26.7204H144.428Z" fill="black" stroke="white"/>
<path d="M59.8721 25.7684C59.8721 25.255 60.2794 24.836 60.7918 24.8037C62.3789 24.7035 63.7259 24.4858 64.8329 24.1503C66.1478 23.7519 67.197 23.1143 67.9807 22.2377C68.7643 21.3611 69.3155 20.2122 69.6343 18.7911C69.9663 17.3566 70.1323 15.5636 70.1323 13.4119C70.1323 11.9642 70.046 10.6958 69.8733 9.60666C69.7139 8.51755 69.4549 7.58781 69.0963 6.81747C68.751 6.03383 68.2994 5.38966 67.7416 4.88495C67.197 4.36696 66.5462 3.96186 65.7891 3.66966C65.0321 3.37746 64.1621 3.17159 63.1793 3.05205C62.4541 2.96385 61.6638 2.90819 60.8084 2.88507C60.2915 2.87109 59.8721 2.45352 59.8721 1.93637V1.93637C59.8721 1.41923 60.2913 1 60.8084 1H112.791C114.377 1 115.755 2.1162 115.955 3.68958V3.68958C116.088 4.61931 116.194 5.55569 116.274 6.4987C116.367 7.42843 116.433 8.35152 116.473 9.26797C116.49 9.66831 116.504 10.0569 116.514 10.4338C116.534 11.1872 115.922 11.7982 115.168 11.7982V11.7982C114.713 11.7982 114.294 11.5677 114.012 11.2108C113.481 10.5378 112.834 9.89679 112.07 9.2879C111.1 8.50426 109.991 7.78704 108.743 7.13623C107.494 6.48542 106.14 5.90102 104.679 5.38302C103.231 4.86503 101.73 4.42673 100.176 4.06812C98.622 3.7095 97.0547 3.43723 95.4742 3.25128C95.378 3.23997 95.282 3.229 95.1861 3.21837C92.802 2.95414 90.8521 4.9169 90.8521 7.3156V11.0114C90.8521 12.0361 91.8265 12.7593 92.7846 12.3959V12.3959C93.5682 12.0904 94.3917 11.7517 95.255 11.3798C96.1316 11.0079 97.0149 10.6161 97.9047 10.2043C98.8079 9.79261 99.6447 9.40079 100.415 9.0289C101.199 8.64372 101.876 8.2984 102.447 7.99291V7.99291C103.04 7.68324 103.815 8.01366 103.897 8.67719C103.905 8.74698 103.913 8.81773 103.921 8.88944C104.001 9.47384 104.061 10.0848 104.101 10.7223C104.141 11.3466 104.167 11.9642 104.18 12.5752C104.194 13.1861 104.2 13.744 104.2 14.2487C104.2 14.7135 104.187 15.2315 104.161 15.8027C104.147 16.3738 104.114 16.9515 104.061 17.5359C104.021 18.1203 103.968 18.6848 103.902 19.2294V19.2294C103.814 19.931 103.029 20.2852 102.4 19.963C102.389 19.9576 102.378 19.9521 102.367 19.9466C101.783 19.6411 101.106 19.3024 100.335 18.9305C99.565 18.5454 98.7349 18.1536 97.845 17.7551C96.9551 17.3434 96.0785 16.9515 95.2152 16.5796C94.3518 16.2078 93.535 15.8757 92.7647 15.5835V15.5835C91.82 15.2023 90.8521 15.9174 90.8521 16.9361V20.5078C90.8521 22.8496 92.7552 24.7569 95.0829 24.5005C95.2848 24.4782 95.4882 24.4545 95.6933 24.4292C97.4332 24.2167 99.1864 23.9179 100.953 23.5327C102.719 23.1475 104.446 22.6893 106.133 22.158C107.833 21.6268 109.387 21.0357 110.795 20.3849C112.203 19.7208 113.418 19.0169 114.441 18.2731C115.191 17.725 115.781 17.163 116.21 16.5871C116.5 16.1987 116.936 15.9222 117.42 15.9222V15.9222C118.14 15.9222 118.725 16.5059 118.707 17.2257C118.697 17.6266 118.683 18.0421 118.664 18.4723C118.624 19.3755 118.558 20.2986 118.465 21.2416C118.385 22.1713 118.279 23.1077 118.146 24.0507V24.0507C117.946 25.6124 116.577 26.7204 115.002 26.7204H60.824C60.2983 26.7204 59.8721 26.2942 59.8721 25.7684V25.7684Z" fill="black" stroke="white"/>
<path d="M1 25.7684C1 25.255 1.40735 24.836 1.91974 24.8037C3.5068 24.7035 4.85381 24.4858 5.96078 24.1503C7.27569 23.7519 8.32496 23.1143 9.10859 22.2377C9.89222 21.3611 10.4434 20.2122 10.7622 18.7911C11.0942 17.3566 11.2603 15.5636 11.2603 13.4119C11.2603 11.9642 11.1739 10.6958 11.0013 9.60666C10.8419 8.51755 10.5829 7.58781 10.2243 6.81747C9.87894 6.03383 9.42736 5.38966 8.86952 4.88495C8.32496 4.36696 7.67415 3.96186 6.91708 3.66966C6.16001 3.37746 5.29005 3.17159 4.30719 3.05205C3.58199 2.96385 2.79171 2.90819 1.93635 2.88507C1.41939 2.87109 1 2.45352 1 1.93637V1.93637C1 1.41923 1.41923 1 1.93637 1H33.8129C36.2302 1 38.6342 1.03985 41.025 1.11954C43.429 1.19923 45.7267 1.37853 47.9183 1.65745C50.1098 1.93637 52.1485 2.35475 54.0346 2.91259C55.9206 3.45715 57.5543 4.20758 58.9356 5.16387C60.3169 6.10688 61.3994 7.28233 62.183 8.69021C62.9799 10.0981 63.3784 11.8048 63.3784 13.8104C63.3784 15.3511 63.0928 16.7191 62.5217 17.9145C61.9638 19.1098 61.1869 20.1591 60.1907 21.0623C59.1946 21.9522 58.0125 22.7092 56.6445 23.3335C55.2897 23.9577 53.8088 24.4824 52.2017 24.9074C50.6078 25.3324 48.9277 25.6645 47.1612 25.9035C45.3947 26.1426 43.6016 26.3219 41.782 26.4414C39.9757 26.561 38.1826 26.6407 36.4029 26.6805C34.6231 26.7071 32.923 26.7204 31.3026 26.7204H1.95198C1.42621 26.7204 1 26.2942 1 25.7684V25.7684ZM31.98 20.7908C31.98 22.7036 33.61 24.2866 35.4466 23.7519V23.7519C36.5091 23.4464 37.4189 22.9151 38.176 22.158C38.9331 21.401 39.5241 20.3583 39.9491 19.0302C40.3741 17.6887 40.5867 15.9488 40.5867 13.8104C40.5867 12.2962 40.4937 10.988 40.3077 9.88558C40.1351 8.78318 39.8761 7.85345 39.5307 7.09639C39.1854 6.32604 38.7604 5.70843 38.2557 5.24356C37.7643 4.76541 37.1998 4.39352 36.5622 4.12788C35.9247 3.86225 35.2208 3.68294 34.4504 3.58997V3.58997C33.106 3.40453 31.98 4.51322 31.98 5.87036V20.7908Z" fill="black" stroke="white"/>
</svg>
