<svg width="176" height="26" viewBox="0 0 176 26" fill="none" xmlns="http://www.w3.org/2000/svg">
<path d="M145.397 25.7194C138.719 25.7194 132.74 21.78 129.615 15.878C128.062 12.9294 126.554 10.4191 125.093 8.34742C123.645 6.2755 122.238 4.68166 120.87 3.5659C119.825 2.70435 118.801 2.17155 117.795 1.96751C117.288 1.86478 116.865 1.45336 116.865 0.936333C116.865 0.41907 117.285 2.17613e-09 117.802 4.85942e-09L151.291 1.78663e-07C151.808 1.81348e-07 152.227 0.41907 152.227 0.936334C152.227 1.45336 151.807 1.86908 151.291 1.89846C150.941 1.91829 150.602 1.94936 150.275 1.99213C149.677 2.07193 149.152 2.21121 148.701 2.41047C148.263 2.60973 147.917 2.8821 147.665 3.22734C147.412 3.57258 147.286 4.011 147.286 4.54213C147.286 4.86085 147.386 5.359 147.585 6.03634C147.798 6.71368 148.083 7.51717 148.442 8.44681C148.814 9.37669 149.239 10.406 149.717 11.5349C150.208 12.6504 150.733 13.8125 151.291 15.0212C151.862 16.2165 152.453 17.4317 153.064 18.6669C153.4 19.3254 153.735 19.97 154.067 20.6014C154.447 21.3225 155.439 21.3531 155.833 20.6392C156.192 19.9884 156.577 19.258 156.988 18.4478C157.4 17.6245 157.825 16.7543 158.264 15.8381C158.715 14.9084 159.147 13.9785 159.558 13.0489C159.983 12.1059 160.382 11.1896 160.754 10.2996C161.139 9.4099 161.471 8.59303 161.75 7.84927C162.041 7.09213 162.268 6.43486 162.428 5.87698C162.6 5.3191 162.686 4.90744 162.686 4.64176C162.686 4.17706 162.6 3.77185 162.428 3.4266C162.268 3.08112 161.996 2.79561 161.61 2.56983C161.225 2.33091 160.721 2.15817 160.096 2.05186C159.695 1.97492 159.23 1.92284 158.701 1.89536C158.185 1.8686 157.765 1.45336 157.765 0.936334C157.765 0.41907 158.185 2.14442e-07 158.702 2.17126e-07L174.799 3.00671e-07C175.316 3.03349e-07 175.736 0.41907 175.736 0.936334C175.736 1.45336 175.316 1.86764 174.799 1.91352C173.858 1.99714 172.96 2.2093 172.109 2.55001C170.993 2.98819 169.926 3.65238 168.903 4.54213C167.88 5.43211 166.889 6.54763 165.933 7.88917C164.977 9.21733 164.015 10.7646 163.045 12.5309C162.089 14.2973 161.106 16.2829 160.096 18.4877C158.119 22.8375 153.839 25.7194 149.061 25.7194L145.397 25.7194Z" fill="white"/>
<path d="M58.8691 24.7675C58.8691 24.2541 59.2765 23.835 59.7887 23.8027C61.3759 23.7026 62.7227 23.485 63.8296 23.1495C65.1446 22.751 66.1937 22.1136 66.9774 21.237C67.7611 20.3604 68.3123 19.2114 68.631 17.7903C68.9631 16.356 69.1289 14.5629 69.1289 12.4115C69.1289 10.9638 69.0426 9.69541 68.8699 8.60641C68.7105 7.51717 68.4515 6.58753 68.0929 5.81725C67.7477 5.03359 67.2961 4.38945 66.7382 3.88485C66.1937 3.36687 65.5429 2.96166 64.786 2.66946C64.0289 2.37726 63.159 2.17155 62.176 2.05185C61.4509 1.96369 60.6608 1.90802 59.8055 1.88485C59.2884 1.87099 58.8691 1.45336 58.8691 0.936333C58.8691 0.41907 59.2882 2.17489e-09 59.8055 4.85942e-09L111.786 2.74632e-07C113.372 2.82861e-07 114.75 1.116 114.95 2.68953C115.083 3.61917 115.189 4.55551 115.269 5.49853C115.362 6.42817 115.428 7.35112 115.468 8.26762C115.486 8.66805 115.499 9.05654 115.509 9.43332C115.529 10.1866 114.917 10.7978 114.163 10.7978C113.708 10.7978 113.289 10.5672 113.007 10.2103C112.476 9.53725 111.829 8.89646 111.065 8.28745C110.095 7.50403 108.986 6.78679 107.738 6.13597C106.49 5.48515 105.135 4.90075 103.674 4.38277C102.226 3.86479 100.725 3.4266 99.1715 3.06798C97.6176 2.70936 96.0505 2.43699 94.4698 2.25111C94.3737 2.23988 94.2777 2.22889 94.1819 2.21814C91.7979 1.9539 89.8479 3.91663 89.8479 6.3154L89.8479 10.011C89.8479 11.0358 90.8224 11.7587 91.7805 11.3953C92.5639 11.09 93.3875 10.7512 94.2507 10.3794C95.1273 10.0074 96.0106 9.61561 96.9003 9.20395C97.8035 8.79229 98.6402 8.40046 99.4107 8.02846C100.194 7.64332 100.871 7.29808 101.443 6.9925C102.035 6.68286 102.811 7.01329 102.892 7.67677C102.901 7.74653 102.909 7.81749 102.917 7.88917C102.997 8.47357 103.056 9.08449 103.096 9.72193C103.136 10.3462 103.163 10.9638 103.176 11.5748C103.189 12.1857 103.196 12.7436 103.196 13.2482C103.196 13.7131 103.183 14.2311 103.156 14.8021C103.143 15.3731 103.109 15.9508 103.056 16.5352C103.016 17.1196 102.963 17.6842 102.897 18.2287C102.809 18.9302 102.024 19.2845 101.395 18.9622C101.384 18.9569 101.374 18.9514 101.363 18.9459C100.778 18.6404 100.101 18.3018 99.3309 17.9298C98.5606 17.5447 97.7306 17.1528 96.8406 16.7543C95.9509 16.3427 95.0743 15.9508 94.2108 15.5791C93.3476 15.2071 92.5307 14.8752 91.7604 14.583C90.8157 14.2017 89.8479 14.9168 89.8479 15.9356L89.8479 19.5069C89.8479 21.8488 91.7511 23.7559 94.0787 23.4995C94.2806 23.4773 94.4839 23.4537 94.6891 23.4283C96.4289 23.2159 98.1821 22.9171 99.9485 22.5319C101.715 22.1468 103.442 21.6885 105.128 21.1572C106.828 20.626 108.382 20.035 109.79 19.3841C111.198 18.7202 112.413 18.0161 113.436 17.2723C114.186 16.7245 114.776 16.1623 115.206 15.5865C115.495 15.198 115.931 14.9216 116.415 14.9216C117.135 14.9216 117.72 15.5053 117.702 16.2251C117.692 16.626 117.678 17.0415 117.659 17.4716C117.619 18.3747 117.553 19.2979 117.46 20.2409C117.38 21.1705 117.274 22.1069 117.141 23.0499C116.941 24.6115 115.572 25.7194 113.997 25.7194L59.821 25.7194C59.2954 25.7194 58.8691 25.2931 58.8691 24.7675Z" fill="white"/>
<path d="M-1.2854e-07 24.7675C-1.25875e-07 24.2541 0.407358 23.835 0.919604 23.8027C2.50652 23.7026 3.85355 23.485 4.96047 23.1495C6.27549 22.751 7.3246 22.1136 8.10826 21.237C8.89192 20.3604 9.44311 19.2114 9.76183 17.7903C10.0937 16.356 10.2597 14.5629 10.2597 12.4115C10.2597 10.9638 10.1735 9.69541 10.0007 8.60641C9.84139 7.51717 9.5824 6.58753 9.22378 5.81725C8.87854 5.03359 8.42698 4.38945 7.86909 3.88485C7.32459 3.36687 6.67377 2.96166 5.91687 2.66946C5.15973 2.37726 4.28982 2.17155 3.3069 2.05185C2.58177 1.96369 1.79167 1.90802 0.936329 1.88485C0.419304 1.87099 -7.54273e-09 1.45336 -4.85944e-09 0.936333C-2.17491e-09 0.41907 0.419065 2.17489e-09 0.936329 4.85942e-09L32.8117 1.70288e-07C35.2289 1.82833e-07 37.6329 0.0399027 40.0236 0.119463C42.4273 0.199263 44.725 0.378453 46.9164 0.657273C49.108 0.936333 51.1465 1.35468 53.0326 1.91256C54.9186 2.45706 56.5521 3.20751 57.9335 4.16368C59.3147 5.1067 60.397 6.28195 61.1807 7.68991C61.9775 9.09763 62.376 10.8045 62.376 12.8097C62.376 14.3506 62.0905 15.7184 61.5195 16.9139C60.9616 18.1093 60.1847 19.1584 59.1886 20.0615C58.1925 20.9515 57.0103 21.7084 55.6423 22.3327C54.2876 22.957 52.8068 23.4814 51.1998 23.9064C49.606 24.3315 47.9259 24.6636 46.1595 24.9025C44.3929 25.1416 42.6001 25.3208 40.7805 25.4405C38.9742 25.56 37.1813 25.6398 35.4016 25.6795C33.6219 25.7062 31.9217 25.7194 30.3014 25.7194L0.951859 25.7194C0.426233 25.7194 -1.31268e-07 25.2931 -1.2854e-07 24.7675ZM30.9787 19.7901C30.9787 21.7026 32.6089 23.2857 34.4452 22.751C35.5077 22.4454 36.4175 21.9143 37.1747 21.1572C37.9316 20.4003 38.5226 19.3576 38.9477 18.0295C39.3727 16.6882 39.5851 14.9481 39.5851 12.8097C39.5851 11.2957 39.4922 9.98761 39.3063 8.88523C39.1336 7.78285 38.8746 6.85321 38.5293 6.09607C38.1839 5.32579 37.7591 4.70818 37.2542 4.24324C36.7628 3.76516 36.1984 3.3934 35.561 3.12772C34.9233 2.86204 34.2194 2.68284 33.4492 2.5899C32.1048 2.4045 30.9787 3.51309 30.9787 4.87017L30.9787 19.7901Z" fill="white"/>
</svg>
