<svg width="14" height="15" viewBox="0 0 14 15" fill="none" xmlns="http://www.w3.org/2000/svg">
<path d="M2.84375 6.875C3.19922 6.875 3.5 7.17578 3.5 7.53125V14.0938C3.5 14.4766 3.19922 14.75 2.84375 14.75H0.65625C0.273438 14.75 0 14.4766 0 14.0938V7.53125C0 7.17578 0.273438 6.875 0.65625 6.875H2.84375ZM1.75 13.6562C2.10547 13.6562 2.40625 13.3828 2.40625 13C2.40625 12.6445 2.10547 12.3438 1.75 12.3438C1.36719 12.3438 1.09375 12.6445 1.09375 13C1.09375 13.3828 1.36719 13.6562 1.75 13.6562ZM10.5 2.99219C10.5 4.14062 9.78906 4.79688 9.57031 5.5625H12.3594C13.2617 5.5625 13.9727 6.32812 13.9727 7.17578C14 7.66797 13.7812 8.1875 13.4531 8.51562C13.7266 9.14453 13.6719 10.0469 13.207 10.6758C13.4258 11.3867 13.207 12.2617 12.7422 12.7266C12.8789 13.2188 12.8242 13.6289 12.5781 13.957C12.0312 14.75 10.6367 14.75 9.46094 14.75H9.37891C8.06641 14.75 7 14.2852 6.125 13.9023C5.6875 13.7109 5.11328 13.4648 4.67578 13.4648C4.51172 13.4375 4.375 13.3008 4.375 13.1367V7.28516C4.375 7.20312 4.40234 7.12109 4.45703 7.03906C5.55078 5.97266 6.01562 4.85156 6.89062 3.94922C7.30078 3.53906 7.4375 2.9375 7.60156 2.33594C7.71094 1.84375 7.95703 0.75 8.53125 0.75C9.1875 0.75 10.5 0.96875 10.5 2.99219Z" fill="black"/>
</svg>
