<svg width="32" height="32" viewBox="0 0 32 32" fill="none" xmlns="http://www.w3.org/2000/svg">
<path d="M16 0.5C24.5625 0.5 31.5 7.4375 31.5 16C31.5 24.5625 24.5625 31.5 16 31.5C7.4375 31.5 0.5 24.5625 0.5 16C0.5 7.4375 7.4375 0.5 16 0.5ZM8.75 18.75H16V23.1875C16 23.875 16.8125 24.1875 17.25 23.75L24.375 16.5625C24.6875 16.25 24.6875 15.8125 24.375 15.5L17.25 8.3125C16.75 7.8125 16 8.1875 16 8.875V13.25H8.75C8.3125 13.25 8 13.625 8 14V18C8 18.4375 8.3125 18.75 8.75 18.75Z" fill="#B4BFCE"/>
</svg>
