<svg width="93" height="40" viewBox="0 0 93 40" fill="none" xmlns="http://www.w3.org/2000/svg">
<path d="M8 0.5H85C89.1421 0.5 92.5 3.85786 92.5 8V32C92.5 36.1421 89.1421 39.5 85 39.5H8C3.85786 39.5 0.5 36.1421 0.5 32V8C0.5 3.85786 3.85786 0.5 8 0.5Z" fill="#2A3038"/>
<path d="M8 0.5H85C89.1421 0.5 92.5 3.85786 92.5 8V32C92.5 36.1421 89.1421 39.5 85 39.5H8C3.85786 39.5 0.5 36.1421 0.5 32V8C0.5 3.85786 3.85786 0.5 8 0.5Z" stroke="#40FF81"/>
<path d="M24.8906 22.6963H23.1611V20.7891H24.8906V22.6963ZM29.7236 21.1309H18.376V19.75H29.7236V21.1309ZM28.3359 26.2578H26.5996V23.585H19.627V22.1904H28.3359V26.2578ZM21.541 15.252H26.5312V14.1172H28.2676V18.9365H19.8184V14.1172H21.541V15.252ZM26.5312 17.5625V16.5371H21.541V17.5625H26.5312ZM36.8398 23.2158H30.8652V14.9922H36.8398V23.2158ZM32.5811 21.8418H35.1104V16.3525H32.5811V21.8418ZM40.2852 26.2578H38.5352V13.8027H40.2852V26.2578ZM42.1309 19.9619H39.9023V18.5059H42.1309V19.9619ZM51.7559 16.3115H43.8672V14.9033H51.7559V16.3115ZM53.9229 24.7607H42.5752V23.3389H53.9229V24.7607ZM52.7471 16.3594C52.7471 17.1523 52.738 17.8268 52.7197 18.3828C52.7061 18.9388 52.6582 19.5677 52.5762 20.2695C52.4941 20.9714 52.362 21.7438 52.1797 22.5869L50.4434 22.4365C50.6257 21.6572 50.7601 20.9235 50.8467 20.2354C50.9333 19.5472 50.9857 18.9297 51.0039 18.3828C51.0267 17.8359 51.0381 17.1615 51.0381 16.3594V14.9033H52.7471V16.3594ZM43.7031 19.9893L43.4912 18.6016L51.4004 18.3213V19.6133L43.7031 19.9893Z" fill="#61FF97"/>
<path d="M61.75 26.75V14.0625C61.75 13.3516 62.3242 12.75 63.0625 12.75H70.9375C71.6484 12.75 72.25 13.3516 72.25 14.0625V26.75L67 23.6875L61.75 26.75Z" fill="#61FF97"/>
</svg>
