<svg width="22" height="19" viewBox="0 0 22 19" fill="none" xmlns="http://www.w3.org/2000/svg">
<path d="M18.8906 2.03906C21.8203 4.5 21.3906 8.52344 19.3203 10.6719L12.4453 17.6641C12.0547 18.0547 11.5469 18.2891 11 18.2891C10.4141 18.2891 9.90625 18.0547 9.51562 17.6641L2.67969 10.6719C0.570312 8.52344 0.140625 4.5 3.07031 2.03906C5.33594 0.125 8.8125 0.398438 11 2.625C13.1484 0.398438 16.625 0.125 18.8906 2.03906ZM17.9531 9.34375C19.3984 7.89844 19.6719 5.16406 17.6797 3.44531C16.1562 2.19531 13.8125 2.39062 12.3672 3.875L11 5.28125L9.63281 3.875C8.14844 2.39062 5.80469 2.19531 4.28125 3.48438C2.28906 5.16406 2.5625 7.89844 4.00781 9.34375L10.8438 16.3359C10.9609 16.4141 11.0391 16.4141 11.1172 16.3359L17.9531 9.34375Z" fill="#8993A0"/>
</svg>
