<svg width="40" height="32" viewBox="0 0 40 32" fill="none" xmlns="http://www.w3.org/2000/svg">
<path d="M0.5 16C0.5 7.43959 7.43959 0.5 16 0.5H24C32.5604 0.5 39.5 7.43959 39.5 16C39.5 24.5604 32.5604 31.5 24 31.5H16C7.43959 31.5 0.5 24.5604 0.5 16Z" fill="#9021FF"/>
<path d="M0.5 16C0.5 7.43959 7.43959 0.5 16 0.5H24C32.5604 0.5 39.5 7.43959 39.5 16C39.5 24.5604 32.5604 31.5 24 31.5H16C7.43959 31.5 0.5 24.5604 0.5 16Z" stroke="#9021FF"/>
<path d="M19.0703 10.582L19.6719 9.98047C19.9453 9.73438 20.3555 9.73438 20.6016 9.98047L25.9336 15.2852C26.1797 15.5586 26.1797 15.9688 25.9336 16.2148L20.6016 21.5469C20.3555 21.793 19.9453 21.793 19.6719 21.5469L19.0703 20.9453C18.8242 20.6719 18.8242 20.2617 19.0703 19.9883L22.3789 16.8438H14.5312C14.1484 16.8438 13.875 16.5703 13.875 16.1875V15.3125C13.875 14.957 14.1484 14.6562 14.5312 14.6562H22.3789L19.0703 11.5391C18.8242 11.2656 18.7969 10.8555 19.0703 10.582Z" fill="white"/>
</svg>
