<svg width="13" height="13" viewBox="0 0 13 13" fill="none" xmlns="http://www.w3.org/2000/svg">
<path d="M11.375 5.4375C11.8398 5.4375 12.25 5.84766 12.25 6.3125V7.1875C12.25 7.67969 11.8398 8.0625 11.375 8.0625H7.4375V12C7.4375 12.4922 7.02734 12.875 6.5625 12.875H5.6875C5.19531 12.875 4.8125 12.4922 4.8125 12V8.0625H0.875C0.382812 8.0625 0 7.67969 0 7.1875V6.3125C0 5.84766 0.382812 5.4375 0.875 5.4375H4.8125V1.5C4.8125 1.03516 5.19531 0.625 5.6875 0.625H6.5625C7.02734 0.625 7.4375 1.03516 7.4375 1.5V5.4375H11.375Z" fill="white"/>
</svg>
