<svg width="40" height="32" viewBox="0 0 40 32" fill="none" xmlns="http://www.w3.org/2000/svg">
<path d="M0.5 16C0.5 7.43959 7.43959 0.5 16 0.5H24C32.5604 0.5 39.5 7.43959 39.5 16C39.5 24.5604 32.5604 31.5 24 31.5H16C7.43959 31.5 0.5 24.5604 0.5 16Z" fill="#9021FF"/>
<path d="M0.5 16C0.5 7.43959 7.43959 0.5 16 0.5H24C32.5604 0.5 39.5 7.43959 39.5 16C39.5 24.5604 32.5604 31.5 24 31.5H16C7.43959 31.5 0.5 24.5604 0.5 16Z" stroke="#9021FF"/>
<path d="M20.9023 20.9453L20.3008 21.5469C20.0273 21.793 19.6172 21.793 19.3711 21.5469L14.0664 16.2148C13.793 15.9688 13.793 15.5586 14.0664 15.3125L19.3711 9.98047C19.6172 9.73438 20.0547 9.73438 20.3008 9.98047L20.9023 10.582C21.1758 10.8555 21.1484 11.2656 20.9023 11.5391L17.5938 14.6562H25.4688C25.8242 14.6562 26.125 14.957 26.125 15.3125V16.1875C26.125 16.5703 25.8242 16.8438 25.4688 16.8438H17.5938L20.9023 19.9883C21.1484 20.2617 21.1758 20.6719 20.9023 20.9453Z" fill="white"/>
</svg>
