<svg width="20" height="32" viewBox="0 0 20 32" fill="none" xmlns="http://www.w3.org/2000/svg">
<path d="M17.7812 21.8438C18.0625 22.1562 18.0625 22.625 17.75 22.9062L16.875 23.7812C16.5938 24.0938 16.125 24.0938 15.8125 23.7812L12.7188 20.6875C12.5625 20.5312 12.5 20.3438 12.5 20.1562V19.625C11.375 20.5 10 21 8.5 21C4.90625 21 2 18.0938 2 14.5C2 10.9375 4.90625 8 8.5 8C12.0625 8 15 10.9375 15 14.5C15 16.0312 14.4688 17.4062 13.625 18.5H14.125C14.3125 18.5 14.5 18.5938 14.6562 18.7188L17.7812 21.8438ZM8.5 18.5C10.6875 18.5 12.5 16.7188 12.5 14.5C12.5 12.3125 10.6875 10.5 8.5 10.5C6.28125 10.5 4.5 12.3125 4.5 14.5C4.5 16.7188 6.28125 18.5 8.5 18.5Z" fill="#677485"/>
</svg>
