<svg width="15" height="15" viewBox="0 0 15 15" fill="none" xmlns="http://www.w3.org/2000/svg">
<path d="M13.8086 12.8633C14.0547 13.1367 14.0547 13.5469 13.7812 13.793L13.0156 14.5586C12.7695 14.832 12.3594 14.832 12.0859 14.5586L9.37891 11.8516C9.24219 11.7148 9.1875 11.5508 9.1875 11.3867V10.9219C8.20312 11.6875 7 12.125 5.6875 12.125C2.54297 12.125 0 9.58203 0 6.4375C0 3.32031 2.54297 0.75 5.6875 0.75C8.80469 0.75 11.375 3.32031 11.375 6.4375C11.375 7.77734 10.9102 8.98047 10.1719 9.9375H10.6094C10.7734 9.9375 10.9375 10.0195 11.0742 10.1289L13.8086 12.8633ZM5.6875 9.9375C7.60156 9.9375 9.1875 8.37891 9.1875 6.4375C9.1875 4.52344 7.60156 2.9375 5.6875 2.9375C3.74609 2.9375 2.1875 4.52344 2.1875 6.4375C2.1875 8.37891 3.74609 9.9375 5.6875 9.9375Z" fill="white"/>
</svg>
