<svg width="1033" height="135" viewBox="0 0 1033 135" fill="none" xmlns="http://www.w3.org/2000/svg">
<rect width="1033" height="135" rx="16" fill="url(#paint0_linear_3153_2793)"/>
<mask id="mask0_3153_2793" style="mask-type:alpha" maskUnits="userSpaceOnUse" x="0" y="0" width="1033" height="135">
<rect width="1033" height="135" rx="16" fill="url(#paint1_linear_3153_2793)"/>
</mask>
<g mask="url(#mask0_3153_2793)">
<path d="M329.269 66.4886C114.06 54.4968 0.717331 71.08 -36.5854 81.0732L-21.5209 142.337L1114.78 140.238V63.8315C1059.54 58.5351 919.8 82.3292 802.727 84.0081C656.385 86.1067 598.279 81.4784 329.269 66.4886Z" fill="#626262"/>
</g>
<g filter="url(#filter0_d_3153_2793)">
<rect x="471.963" y="67.5571" width="62.3535" height="62.3535" rx="10.5" transform="rotate(-45 471.963 67.5571)" fill="#25CF5F" stroke="#40FF81" stroke-width="3"/>
<rect x="463.121" y="67.5571" width="75.5696" height="75.5696" rx="13.5" transform="rotate(-45 463.121 67.5571)" stroke="#40FF81" stroke-width="3"/>
</g>
<path d="M499.467 57.6153L507.216 49.7457C509.323 47.6054 512.714 47.551 514.887 49.6226L517.381 52.0015L514.866 54.745L512.371 52.366C511.647 51.6755 510.517 51.6937 509.815 52.4071L502.066 60.2767C501.344 61.0096 501.343 62.2008 502.063 62.9352L503.492 64.393C503.838 64.7452 504.306 64.9431 504.794 64.9431L507.322 64.9431C507.81 64.9431 508.279 65.1409 508.624 65.4931L524.197 81.3759L521.593 84.0317L506.559 68.6989L504.794 68.6989C503.329 68.6989 501.924 68.1054 500.888 67.0488L499.459 65.591C497.298 63.3876 497.302 59.8141 499.467 57.6153Z" fill="black"/>
<path d="M519.133 57.8351L533.064 72.0431C534.1 73.0996 534.682 74.5326 534.682 76.0267V80.048C534.682 83.1595 532.209 85.6818 529.158 85.6818H525.499C524.034 85.6818 522.629 85.0882 521.593 84.0317L524.197 81.3759C524.543 81.7281 525.011 81.9259 525.499 81.9259H529.158C530.175 81.9259 530.999 81.0852 530.999 80.048V76.0267C530.999 75.5287 530.805 75.051 530.46 74.6988L515.989 59.9409C515.644 59.5887 515.45 59.111 515.45 58.613V56.1167C515.45 55.5968 515.239 55.1001 514.866 54.745L517.381 52.0015C518.499 53.0668 519.133 54.5569 519.133 56.1167V57.8351Z" fill="black"/>
<path d="M516.808 66.251C516.089 65.5176 516.089 64.3285 516.808 63.5952L518.549 61.8188C519.269 61.0854 520.434 61.0854 521.154 61.8188C521.873 62.5522 521.873 63.7412 521.154 64.4746L519.412 66.251C518.693 66.9843 517.527 66.9843 516.808 66.251Z" fill="black"/>
<path d="M520.49 70.0068C519.771 69.2734 519.771 68.0844 520.49 67.351L522.232 65.5747C522.951 64.8413 524.117 64.8413 524.836 65.5747C525.555 66.308 525.555 67.4971 524.836 68.2304L523.094 70.0068C522.375 70.7402 521.209 70.7402 520.49 70.0068Z" fill="black"/>
<path d="M524.173 71.1069C523.454 71.8402 523.454 73.0293 524.173 73.7627C524.892 74.496 526.058 74.496 526.777 73.7627L528.519 71.9863C529.238 71.2529 529.238 70.0639 528.519 69.3305C527.8 68.5971 526.634 68.5971 525.915 69.3305L524.173 71.1069Z" fill="black"/>
<defs>
<filter id="filter0_d_3153_2793" x="462.213" y="16.2134" width="108.688" height="108.688" filterUnits="userSpaceOnUse" color-interpolation-filters="sRGB">
<feFlood flood-opacity="0" result="BackgroundImageFix"/>
<feColorMatrix in="SourceAlpha" type="matrix" values="0 0 0 0 0 0 0 0 0 0 0 0 0 0 0 0 0 0 127 0" result="hardAlpha"/>
<feOffset dy="3"/>
<feGaussianBlur stdDeviation="2.5"/>
<feComposite in2="hardAlpha" operator="out"/>
<feColorMatrix type="matrix" values="0 0 0 0 0 0 0 0 0 0 0 0 0 0 0 0 0 0 0.6 0"/>
<feBlend mode="normal" in2="BackgroundImageFix" result="effect1_dropShadow_3153_2793"/>
<feBlend mode="normal" in="SourceGraphic" in2="effect1_dropShadow_3153_2793" result="shape"/>
</filter>
<linearGradient id="paint0_linear_3153_2793" x1="542.325" y1="2.44352e-06" x2="542.325" y2="135" gradientUnits="userSpaceOnUse">
<stop stop-color="#393939"/>
<stop offset="1" stop-color="#5A5A5A"/>
</linearGradient>
<linearGradient id="paint1_linear_3153_2793" x1="542.325" y1="2.44352e-06" x2="542.325" y2="135" gradientUnits="userSpaceOnUse">
<stop stop-color="#393939"/>
<stop offset="1" stop-color="#5A5A5A"/>
</linearGradient>
</defs>
</svg>
