
<svg width="20" height="20" viewBox="0 0 24 24" fill="none" xmlns="http://www.w3.org/2000/svg">
<path d="M2 12.5C2 6.99219 6.45312 2.5 12 2.5C17.5078 2.5 22 6.99219 22 12.5C22 18.0469 17.5078 22.5 12 22.5C6.45312 22.5 2 18.0469 2 12.5ZM8.83594 10.6641L10.6719 12.5L8.83594 14.3359C8.44531 14.7266 8.44531 15.3125 8.83594 15.6641C9.1875 16.0547 9.77344 16.0547 10.125 15.6641L11.9609 13.8281L13.8359 15.6641C14.1875 16.0547 14.7734 16.0547 15.125 15.6641C15.5156 15.3125 15.5156 14.7266 15.125 14.3359L13.2891 12.5L15.125 10.6641C15.5156 10.3125 15.5156 9.72656 15.125 9.33594C14.7734 8.98438 14.1875 8.98438 13.8359 9.33594L11.9609 11.2109L10.125 9.33594C9.77344 8.98438 9.1875 8.98438 8.83594 9.33594C8.44531 9.72656 8.44531 10.3125 8.83594 10.6641Z" fill="#677485"/>
</svg>
