<svg width="139" height="28" viewBox="0 0 139 28" fill="none" xmlns="http://www.w3.org/2000/svg">
<rect width="131" height="28" rx="8" fill="#3B3C42"/>
<path d="M18.1621 16.0254H16.6797V14.3906H18.1621V16.0254ZM22.3047 14.6836H12.5781V13.5H22.3047V14.6836ZM21.1152 19.0781H19.627V16.7871H13.6504V15.5918H21.1152V19.0781ZM15.291 9.64453H19.5684V8.67188H21.0566V12.8027H13.8145V8.67188H15.291V9.64453ZM19.5684 11.625V10.7461H15.291V11.625H19.5684ZM28.4043 16.4707H23.2832V9.42188H28.4043V16.4707ZM24.7539 15.293H26.9219V10.5879H24.7539V15.293ZM31.3574 19.0781H29.8574V8.40234H31.3574V19.0781ZM32.9395 13.6816H31.0293V12.4336H32.9395V13.6816ZM41.1895 10.5527H34.4277V9.3457H41.1895V10.5527ZM43.0469 17.7949H33.3203V16.5762H43.0469V17.7949ZM42.0391 10.5938C42.0391 11.2734 42.0312 11.8516 42.0156 12.3281C42.0039 12.8047 41.9629 13.3438 41.8926 13.9453C41.8223 14.5469 41.709 15.209 41.5527 15.9316L40.0645 15.8027C40.2207 15.1348 40.3359 14.5059 40.4102 13.916C40.4844 13.3262 40.5293 12.7969 40.5449 12.3281C40.5645 11.8594 40.5742 11.2812 40.5742 10.5938V9.3457H42.0391V10.5938ZM34.2871 13.7051L34.1055 12.5156L40.8848 12.2754V13.3828L34.2871 13.7051ZM49.7734 13.5527H47.9922V12.3574H49.7734V13.5527ZM52.9316 19.0781H51.4961V8.40234H52.9316V19.0781ZM50.7109 18.5859H49.2988V8.56641H50.7109V18.5859ZM46.0996 9.16992C46.5723 9.16992 46.9863 9.32617 47.3418 9.63867C47.6973 9.94727 47.9707 10.3926 48.1621 10.9746C48.3574 11.5566 48.4551 12.2422 48.4551 13.0312C48.4551 13.8164 48.3574 14.502 48.1621 15.0879C47.9707 15.6699 47.6973 16.1191 47.3418 16.4355C46.9863 16.748 46.5723 16.9062 46.0996 16.9102C45.6309 16.9062 45.2207 16.748 44.8691 16.4355C44.5176 16.1191 44.2461 15.6699 44.0547 15.0879C43.8672 14.502 43.7734 13.8164 43.7734 13.0312C43.7734 12.2383 43.8672 11.5527 44.0547 10.9746C44.2461 10.3926 44.5176 9.94727 44.8691 9.63867C45.2246 9.32617 45.6348 9.16992 46.0996 9.16992ZM46.0996 10.5879C45.8965 10.584 45.7246 10.6738 45.584 10.8574C45.4434 11.041 45.3359 11.3145 45.2617 11.6777C45.1914 12.041 45.1562 12.4922 45.1562 13.0312C45.1562 13.5664 45.1914 14.0176 45.2617 14.3848C45.3359 14.752 45.4434 15.0254 45.584 15.2051C45.7285 15.3848 45.9004 15.4746 46.0996 15.4746C46.3066 15.4746 46.4824 15.3848 46.627 15.2051C46.7715 15.0254 46.8828 14.752 46.9609 14.3848C47.0391 14.0176 47.0781 13.5664 47.0781 13.0312C47.0781 12.4922 47.0391 12.041 46.9609 11.6777C46.8828 11.3145 46.7715 11.041 46.627 10.8574C46.4824 10.6738 46.3066 10.584 46.0996 10.5879ZM62.3242 12.9727H59.4824V11.7715H62.3242V12.9727ZM57.7891 10.8223C57.7891 11.7363 57.6816 12.5938 57.4668 13.3945C57.252 14.1953 56.9238 14.9043 56.4824 15.5215C56.041 16.1387 55.4941 16.6113 54.8418 16.9395L53.9043 15.7148C54.4902 15.4492 54.9824 15.0625 55.3809 14.5547C55.7832 14.0469 56.082 13.4727 56.2773 12.832C56.4766 12.1914 56.5762 11.5215 56.5762 10.8223V9.22852H57.7891V10.8223ZM58.0938 10.8223C58.0938 11.5215 58.1875 12.1816 58.375 12.8027C58.5625 13.4199 58.8496 13.9688 59.2363 14.4492C59.623 14.9297 60.1035 15.2969 60.6777 15.5508L59.7637 16.7461C59.123 16.4297 58.5879 15.9785 58.1582 15.3926C57.7324 14.8027 57.4141 14.1211 57.2031 13.3477C56.9961 12.5742 56.8926 11.7324 56.8926 10.8223V9.22852H58.0938V10.8223ZM63.0566 19.1074H61.5742V8.40234H63.0566V19.1074ZM70.8555 9.94336C70.8555 10.6504 70.7461 11.3047 70.5273 11.9062C70.3086 12.5039 69.9746 13.0234 69.5254 13.4648C69.0801 13.9023 68.5234 14.2285 67.8555 14.4434L67.0938 13.2598C67.6719 13.0762 68.1484 12.8164 68.5234 12.4805C68.9023 12.1406 69.1816 11.7539 69.3613 11.3203C69.541 10.8867 69.6309 10.4277 69.6309 9.94336V8.96484H70.8555V9.94336ZM71.1367 10.0723C71.1367 10.5176 71.2246 10.9395 71.4004 11.3379C71.5762 11.7363 71.8477 12.0938 72.2148 12.4102C72.582 12.7227 73.043 12.9688 73.5977 13.1484L72.8535 14.2969C72.209 14.1016 71.6699 13.7949 71.2363 13.377C70.8027 12.959 70.4766 12.4688 70.2578 11.9062C70.043 11.3438 69.9355 10.7324 69.9355 10.0723V8.96484H71.1367V10.0723ZM75.666 14.8594H74.1719V8.40234H75.666V14.8594ZM77.1074 12.2695H75.2441V11.0156H77.1074V12.2695ZM75.666 19.0781H74.1719V16.4941H68.4883V15.3047H75.666V19.0781ZM86.793 19.0781H85.3867V8.40234H86.793V19.0781ZM83.6055 13.2773H81.8066V12.0762H83.6055V13.2773ZM84.6133 18.5918H83.2129V8.58984H84.6133V18.5918ZM80.6406 11.2676C80.6406 12.1035 80.5547 12.8965 80.3828 13.6465C80.2148 14.3926 79.9551 15.0664 79.6035 15.668C79.252 16.2656 78.8027 16.7324 78.2559 17.0684L77.3535 15.9668C77.8574 15.6543 78.2695 15.25 78.5898 14.7539C78.9141 14.2539 79.1484 13.709 79.293 13.1191C79.4375 12.5293 79.5098 11.9121 79.5098 11.2676V10.1484H80.6406V11.2676ZM80.9512 11.2676C80.9512 11.8965 81.0195 12.4941 81.1562 13.0605C81.2969 13.623 81.5254 14.1367 81.8418 14.6016C82.1582 15.0625 82.5645 15.4375 83.0605 15.7266L82.1875 16.8223C81.6445 16.502 81.1992 16.0586 80.8516 15.4922C80.5039 14.9258 80.25 14.2852 80.0898 13.5703C79.9297 12.8555 79.8496 12.0879 79.8496 11.2676V10.1484H80.9512V11.2676ZM82.5684 10.6934H77.7578V9.49805H82.5684V10.6934ZM97.1113 14.9941H95.6875V8.42578H97.1113V14.9941ZM96.0684 12.3691H94.3223V11.1621H96.0684V12.3691ZM94.8555 14.877H93.4668V8.56641H94.8555V14.877ZM93.127 10.623H87.8945V9.43359H93.127V10.623ZM90.5254 10.957C90.9746 10.957 91.375 11.0352 91.7266 11.1914C92.082 11.3438 92.3594 11.5605 92.5586 11.8418C92.7578 12.123 92.8574 12.4473 92.8574 12.8145C92.8574 13.1777 92.7578 13.5 92.5586 13.7812C92.3594 14.0625 92.082 14.2832 91.7266 14.4434C91.375 14.5996 90.9746 14.6777 90.5254 14.6777C90.0879 14.6777 89.6934 14.5996 89.3418 14.4434C88.9902 14.2832 88.7148 14.0625 88.5156 13.7812C88.3164 13.5 88.2168 13.1777 88.2168 12.8145C88.2168 12.4512 88.3164 12.1289 88.5156 11.8477C88.7148 11.5625 88.9883 11.3438 89.3359 11.1914C89.6875 11.0352 90.084 10.957 90.5254 10.957ZM90.5254 12.0234C90.3301 12.0234 90.1582 12.0547 90.0098 12.1172C89.8652 12.1797 89.752 12.2695 89.6699 12.3867C89.5918 12.5039 89.5527 12.6465 89.5527 12.8145C89.5527 12.9785 89.5938 13.1211 89.6758 13.2422C89.7578 13.3594 89.8711 13.4492 90.0156 13.5117C90.1602 13.5742 90.3301 13.6055 90.5254 13.6055C90.7207 13.6055 90.8926 13.5742 91.041 13.5117C91.1895 13.4492 91.3047 13.3594 91.3867 13.2422C91.4688 13.1211 91.5098 12.9785 91.5098 12.8145C91.5098 12.6465 91.4688 12.5039 91.3867 12.3867C91.3047 12.2695 91.1895 12.1797 91.041 12.1172C90.8926 12.0547 90.7207 12.0234 90.5254 12.0234ZM91.2637 10.2773H89.7695V8.47266H91.2637V10.2773ZM91.6855 15.5332C91.6855 16.0488 91.5957 16.5312 91.416 16.9805C91.2402 17.4297 90.9707 17.8262 90.6074 18.1699C90.2441 18.5176 89.791 18.7773 89.248 18.9492L88.5391 17.8359C88.9844 17.707 89.3574 17.5234 89.6582 17.2852C89.9629 17.043 90.1875 16.7715 90.332 16.4707C90.4805 16.1699 90.5547 15.8574 90.5547 15.5332V15.3223H91.6855V15.5332ZM92.0371 15.5332C92.0371 15.8652 92.0977 16.1855 92.2188 16.4941C92.3438 16.8027 92.541 17.084 92.8105 17.3379C93.0801 17.5918 93.4219 17.7969 93.8359 17.9531L93.2324 19.0547C92.7051 18.8672 92.2695 18.5918 91.9258 18.2285C91.582 17.8691 91.332 17.459 91.1758 16.998C91.0195 16.5371 90.9414 16.0488 90.9414 15.5332V15.3223H92.0371V15.5332ZM95.5293 15.5332C95.5293 16.0137 95.4473 16.4863 95.2832 16.9512C95.123 17.416 94.8711 17.834 94.5273 18.2051C94.1875 18.5801 93.7559 18.8633 93.2324 19.0547L92.6289 17.9531C93.0352 17.7852 93.373 17.5684 93.6426 17.3027C93.916 17.0371 94.1172 16.752 94.2461 16.4473C94.3789 16.1387 94.4453 15.834 94.4453 15.5332V15.3223H95.5293V15.5332ZM95.9336 15.5332C95.9336 15.873 96.0039 16.1973 96.1445 16.5059C96.2891 16.8105 96.5098 17.0801 96.8066 17.3145C97.1074 17.5488 97.4844 17.7227 97.9375 17.8359L97.252 18.9492C96.7051 18.7852 96.25 18.5332 95.8867 18.1934C95.5234 17.8574 95.2539 17.4648 95.0781 17.0156C94.9023 16.5625 94.8145 16.0684 94.8145 15.5332V15.3223H95.9336V15.5332ZM101.26 9.1582C101.791 9.1582 102.266 9.31445 102.684 9.62695C103.102 9.93945 103.428 10.3828 103.662 10.957C103.9 11.5312 104.02 12.1992 104.02 12.9609C104.02 13.7266 103.9 14.3965 103.662 14.9707C103.428 15.5449 103.102 15.9883 102.684 16.3008C102.266 16.6094 101.791 16.7637 101.26 16.7637C100.725 16.7637 100.246 16.6094 99.8242 16.3008C99.4062 15.9922 99.0781 15.5508 98.8398 14.9766C98.6016 14.3984 98.4824 13.7266 98.4824 12.9609C98.4824 12.1992 98.6016 11.5312 98.8398 10.957C99.0781 10.3828 99.4062 9.93945 99.8242 9.62695C100.246 9.31445 100.725 9.1582 101.26 9.1582ZM101.26 10.5117C100.994 10.5078 100.758 10.6016 100.551 10.793C100.348 10.9844 100.191 11.2637 100.082 11.6309C99.9766 11.998 99.9238 12.4414 99.9238 12.9609C99.9238 13.4805 99.9766 13.9238 100.082 14.291C100.191 14.6582 100.348 14.9375 100.551 15.1289C100.758 15.3164 100.994 15.4102 101.26 15.4102C101.529 15.4102 101.766 15.3164 101.969 15.1289C102.172 14.9375 102.328 14.6582 102.438 14.291C102.547 13.9238 102.602 13.4805 102.602 12.9609C102.602 12.4375 102.545 11.9922 102.432 11.625C102.322 11.2578 102.168 10.9805 101.969 10.793C101.77 10.6016 101.533 10.5078 101.26 10.5117ZM107.318 19.1074H105.836V8.40234H107.318V19.1074ZM106.475 13.4648H103.574V12.2637H106.475V13.4648ZM112.352 16.834H110.869V13.8398H112.352V16.834ZM116.277 16.834H114.771V13.8398H116.277V16.834ZM118.445 17.8301H108.695V16.6055H118.445V17.8301ZM113.553 8.92969C114.322 8.92969 115.01 9.04883 115.615 9.28711C116.225 9.52539 116.701 9.86133 117.045 10.2949C117.393 10.7285 117.566 11.2266 117.566 11.7891C117.566 12.3555 117.395 12.8555 117.051 13.2891C116.707 13.7188 116.23 14.0527 115.621 14.291C115.016 14.5254 114.326 14.6445 113.553 14.6484C112.783 14.6445 112.094 14.5254 111.484 14.291C110.879 14.0527 110.404 13.7188 110.061 13.2891C109.717 12.8555 109.545 12.3555 109.545 11.7891C109.545 11.2266 109.717 10.7285 110.061 10.2949C110.404 9.86133 110.881 9.52539 111.49 9.28711C112.1 9.04883 112.787 8.92969 113.553 8.92969ZM113.553 10.1133C113.045 10.1094 112.602 10.1738 112.223 10.3066C111.844 10.4395 111.549 10.6328 111.338 10.8867C111.127 11.1367 111.021 11.4375 111.021 11.7891C111.021 12.1367 111.127 12.4395 111.338 12.6973C111.549 12.9512 111.844 13.1484 112.223 13.2891C112.605 13.4258 113.049 13.4941 113.553 13.4941C114.053 13.4941 114.494 13.4258 114.877 13.2891C115.26 13.1484 115.557 12.9512 115.768 12.6973C115.982 12.4395 116.09 12.1367 116.09 11.7891C116.09 11.4375 115.984 11.1367 115.773 10.8867C115.562 10.6367 115.266 10.4453 114.883 10.3125C114.504 10.1758 114.061 10.1094 113.553 10.1133Z" fill="#40FF81"/>
<path d="M139 14L131 18L131 10L139 14Z" fill="#3B3C42"/>
</svg>
