<svg width="129" height="28" viewBox="0 0 129 28" fill="none" xmlns="http://www.w3.org/2000/svg">
<rect width="121" height="28" rx="8" fill="#3B3C42"/>
<path d="M18.3477 16.0254H16.8652V14.3906H18.3477V16.0254ZM22.4902 14.6836H12.7637V13.5H22.4902V14.6836ZM21.3008 19.0781H19.8125V16.7871H13.8359V15.5918H21.3008V19.0781ZM15.4766 9.64453H19.7539V8.67188H21.2422V12.8027H14V8.67188H15.4766V9.64453ZM19.7539 11.625V10.7461H15.4766V11.625H19.7539ZM28.5898 16.4707H23.4688V9.42188H28.5898V16.4707ZM24.9395 15.293H27.1074V10.5879H24.9395V15.293ZM31.543 19.0781H30.043V8.40234H31.543V19.0781ZM33.125 13.6816H31.2148V12.4336H33.125V13.6816ZM41.375 10.5527H34.6133V9.3457H41.375V10.5527ZM43.2324 17.7949H33.5059V16.5762H43.2324V17.7949ZM42.2246 10.5938C42.2246 11.2734 42.2168 11.8516 42.2012 12.3281C42.1895 12.8047 42.1484 13.3438 42.0781 13.9453C42.0078 14.5469 41.8945 15.209 41.7383 15.9316L40.25 15.8027C40.4062 15.1348 40.5215 14.5059 40.5957 13.916C40.6699 13.3262 40.7148 12.7969 40.7305 12.3281C40.75 11.8594 40.7598 11.2812 40.7598 10.5938V9.3457H42.2246V10.5938ZM34.4727 13.7051L34.291 12.5156L41.0703 12.2754V13.3828L34.4727 13.7051ZM53.627 17.8945H43.877V16.6699H53.627V17.8945ZM49.4668 17.1797H47.9961V14.6484H49.4668V17.1797ZM52.502 12.6387H46.4902V14.4609H45.002V11.4668H51.0254V10.3066H44.9844V9.10547H52.502V12.6387ZM52.7539 15.0527H45.002V13.8398H52.7539V15.0527ZM66.0312 19.1074H64.5312V8.40234H66.0312V19.1074ZM64.9004 13.3477H62.6152V12.1348H64.9004V13.3477ZM60.7051 11.0859C60.7051 11.9688 60.5938 12.8047 60.3711 13.5938C60.1523 14.3828 59.8203 15.084 59.375 15.6973C58.9297 16.3105 58.3848 16.7773 57.7402 17.0977L56.8496 15.9199C57.4316 15.6465 57.9219 15.2598 58.3203 14.7598C58.7188 14.2598 59.0176 13.6953 59.2168 13.0664C59.416 12.4336 59.5156 11.7734 59.5156 11.0859V10.0723H60.7051V11.0859ZM61.0449 11.0859C61.0449 11.7383 61.1445 12.3672 61.3438 12.9727C61.543 13.5742 61.8418 14.1172 62.2402 14.6016C62.6426 15.0859 63.1328 15.4512 63.7109 15.6973L62.8379 16.8809C62.1895 16.5762 61.6426 16.1289 61.1973 15.5391C60.752 14.9492 60.418 14.2754 60.1953 13.5176C59.9766 12.7559 59.8672 11.9453 59.8672 11.0859V10.0723H61.0449V11.0859ZM63.2656 10.6406H57.3008V9.44531H63.2656V10.6406ZM71.041 10.2949C71.041 10.9863 70.9277 11.6328 70.7012 12.2344C70.4785 12.832 70.1387 13.3535 69.6816 13.7988C69.2246 14.2441 68.6602 14.5762 67.9883 14.7949L67.2383 13.6172C67.8047 13.4297 68.2812 13.1641 68.668 12.8203C69.0547 12.4766 69.3418 12.0879 69.5293 11.6543C69.7207 11.2207 69.8164 10.7676 69.8164 10.2949V9.59766H71.041V10.2949ZM71.3281 10.2891C71.3281 10.7188 71.416 11.1289 71.5918 11.5195C71.7676 11.9102 72.0391 12.2578 72.4062 12.5625C72.7734 12.8672 73.2324 13.1035 73.7832 13.2715L73.0801 14.4375C72.4238 14.2383 71.875 13.9336 71.4336 13.5234C70.9922 13.1133 70.6602 12.6309 70.4375 12.0762C70.2188 11.5215 70.1094 10.9258 70.1094 10.2891V9.59766H71.3281V10.2891ZM73.4551 10.3184H67.6426V9.12305H73.4551V10.3184ZM75.8516 14.7363H74.3574V8.40234H75.8516V14.7363ZM77.293 12.1055H75.4297V10.8867H77.293V12.1055ZM72.3535 14.9473C73.0918 14.9473 73.7305 15.0293 74.2695 15.1934C74.8125 15.3535 75.2285 15.5879 75.5176 15.8965C75.8066 16.2051 75.9512 16.5742 75.9512 17.0039C75.9512 17.4336 75.8066 17.8027 75.5176 18.1113C75.2285 18.4238 74.8125 18.6621 74.2695 18.8262C73.7305 18.9941 73.0918 19.0781 72.3535 19.0781C71.6074 19.0781 70.959 18.9941 70.4082 18.8262C69.8613 18.6621 69.4395 18.4238 69.1426 18.1113C68.8457 17.8027 68.6973 17.4336 68.6973 17.0039C68.6973 16.5742 68.8438 16.2051 69.1367 15.8965C69.4336 15.5879 69.8574 15.3535 70.4082 15.1934C70.959 15.0293 71.6074 14.9473 72.3535 14.9473ZM72.3535 16.1074C71.8926 16.1074 71.5 16.1406 71.1758 16.207C70.8555 16.2695 70.6133 16.3672 70.4492 16.5C70.2852 16.6328 70.2031 16.8008 70.2031 17.0039C70.2031 17.2031 70.2852 17.3711 70.4492 17.5078C70.6133 17.6445 70.8555 17.748 71.1758 17.8184C71.4961 17.8848 71.8887 17.918 72.3535 17.918C72.8223 17.918 73.2129 17.8848 73.5254 17.8184C73.8418 17.748 74.0801 17.6445 74.2402 17.5078C74.4004 17.3711 74.4805 17.2031 74.4805 17.0039C74.4805 16.8008 74.4004 16.6328 74.2402 16.5C74.0801 16.3672 73.8418 16.2695 73.5254 16.207C73.209 16.1406 72.8184 16.1074 72.3535 16.1074ZM86.9258 14.9941H85.502V8.42578H86.9258V14.9941ZM85.8828 12.3691H84.1367V11.1621H85.8828V12.3691ZM84.6699 14.877H83.2812V8.56641H84.6699V14.877ZM82.9414 10.623H77.709V9.43359H82.9414V10.623ZM80.3398 10.957C80.7891 10.957 81.1895 11.0352 81.541 11.1914C81.8965 11.3438 82.1738 11.5605 82.373 11.8418C82.5723 12.123 82.6719 12.4473 82.6719 12.8145C82.6719 13.1777 82.5723 13.5 82.373 13.7812C82.1738 14.0625 81.8965 14.2832 81.541 14.4434C81.1895 14.5996 80.7891 14.6777 80.3398 14.6777C79.9023 14.6777 79.5078 14.5996 79.1562 14.4434C78.8047 14.2832 78.5293 14.0625 78.3301 13.7812C78.1309 13.5 78.0312 13.1777 78.0312 12.8145C78.0312 12.4512 78.1309 12.1289 78.3301 11.8477C78.5293 11.5625 78.8027 11.3438 79.1504 11.1914C79.502 11.0352 79.8984 10.957 80.3398 10.957ZM80.3398 12.0234C80.1445 12.0234 79.9727 12.0547 79.8242 12.1172C79.6797 12.1797 79.5664 12.2695 79.4844 12.3867C79.4062 12.5039 79.3672 12.6465 79.3672 12.8145C79.3672 12.9785 79.4082 13.1211 79.4902 13.2422C79.5723 13.3594 79.6855 13.4492 79.8301 13.5117C79.9746 13.5742 80.1445 13.6055 80.3398 13.6055C80.5352 13.6055 80.707 13.5742 80.8555 13.5117C81.0039 13.4492 81.1191 13.3594 81.2012 13.2422C81.2832 13.1211 81.3242 12.9785 81.3242 12.8145C81.3242 12.6465 81.2832 12.5039 81.2012 12.3867C81.1191 12.2695 81.0039 12.1797 80.8555 12.1172C80.707 12.0547 80.5352 12.0234 80.3398 12.0234ZM81.0781 10.2773H79.584V8.47266H81.0781V10.2773ZM81.5 15.5332C81.5 16.0488 81.4102 16.5312 81.2305 16.9805C81.0547 17.4297 80.7852 17.8262 80.4219 18.1699C80.0586 18.5176 79.6055 18.7773 79.0625 18.9492L78.3535 17.8359C78.7988 17.707 79.1719 17.5234 79.4727 17.2852C79.7773 17.043 80.002 16.7715 80.1465 16.4707C80.2949 16.1699 80.3691 15.8574 80.3691 15.5332V15.3223H81.5V15.5332ZM81.8516 15.5332C81.8516 15.8652 81.9121 16.1855 82.0332 16.4941C82.1582 16.8027 82.3555 17.084 82.625 17.3379C82.8945 17.5918 83.2363 17.7969 83.6504 17.9531L83.0469 19.0547C82.5195 18.8672 82.084 18.5918 81.7402 18.2285C81.3965 17.8691 81.1465 17.459 80.9902 16.998C80.834 16.5371 80.7559 16.0488 80.7559 15.5332V15.3223H81.8516V15.5332ZM85.3438 15.5332C85.3438 16.0137 85.2617 16.4863 85.0977 16.9512C84.9375 17.416 84.6855 17.834 84.3418 18.2051C84.002 18.5801 83.5703 18.8633 83.0469 19.0547L82.4434 17.9531C82.8496 17.7852 83.1875 17.5684 83.457 17.3027C83.7305 17.0371 83.9316 16.752 84.0605 16.4473C84.1934 16.1387 84.2598 15.834 84.2598 15.5332V15.3223H85.3438V15.5332ZM85.748 15.5332C85.748 15.873 85.8184 16.1973 85.959 16.5059C86.1035 16.8105 86.3242 17.0801 86.6211 17.3145C86.9219 17.5488 87.2988 17.7227 87.752 17.8359L87.0664 18.9492C86.5195 18.7852 86.0645 18.5332 85.7012 18.1934C85.3379 17.8574 85.0684 17.4648 84.8926 17.0156C84.7168 16.5625 84.6289 16.0684 84.6289 15.5332V15.3223H85.748V15.5332ZM91.0742 9.1582C91.6055 9.1582 92.0801 9.31445 92.498 9.62695C92.916 9.93945 93.2422 10.3828 93.4766 10.957C93.7148 11.5312 93.834 12.1992 93.834 12.9609C93.834 13.7266 93.7148 14.3965 93.4766 14.9707C93.2422 15.5449 92.916 15.9883 92.498 16.3008C92.0801 16.6094 91.6055 16.7637 91.0742 16.7637C90.5391 16.7637 90.0605 16.6094 89.6387 16.3008C89.2207 15.9922 88.8926 15.5508 88.6543 14.9766C88.416 14.3984 88.2969 13.7266 88.2969 12.9609C88.2969 12.1992 88.416 11.5312 88.6543 10.957C88.8926 10.3828 89.2207 9.93945 89.6387 9.62695C90.0605 9.31445 90.5391 9.1582 91.0742 9.1582ZM91.0742 10.5117C90.8086 10.5078 90.5723 10.6016 90.3652 10.793C90.1621 10.9844 90.0059 11.2637 89.8965 11.6309C89.791 11.998 89.7383 12.4414 89.7383 12.9609C89.7383 13.4805 89.791 13.9238 89.8965 14.291C90.0059 14.6582 90.1621 14.9375 90.3652 15.1289C90.5723 15.3164 90.8086 15.4102 91.0742 15.4102C91.3438 15.4102 91.5801 15.3164 91.7832 15.1289C91.9863 14.9375 92.1426 14.6582 92.252 14.291C92.3613 13.9238 92.416 13.4805 92.416 12.9609C92.416 12.4375 92.3594 11.9922 92.2461 11.625C92.1367 11.2578 91.9824 10.9805 91.7832 10.793C91.584 10.6016 91.3477 10.5078 91.0742 10.5117ZM97.1328 19.1074H95.6504V8.40234H97.1328V19.1074ZM96.2891 13.4648H93.3887V12.2637H96.2891V13.4648ZM102.166 16.834H100.684V13.8398H102.166V16.834ZM106.092 16.834H104.586V13.8398H106.092V16.834ZM108.26 17.8301H98.5098V16.6055H108.26V17.8301ZM103.367 8.92969C104.137 8.92969 104.824 9.04883 105.43 9.28711C106.039 9.52539 106.516 9.86133 106.859 10.2949C107.207 10.7285 107.381 11.2266 107.381 11.7891C107.381 12.3555 107.209 12.8555 106.865 13.2891C106.521 13.7188 106.045 14.0527 105.436 14.291C104.83 14.5254 104.141 14.6445 103.367 14.6484C102.598 14.6445 101.908 14.5254 101.299 14.291C100.693 14.0527 100.219 13.7188 99.875 13.2891C99.5312 12.8555 99.3594 12.3555 99.3594 11.7891C99.3594 11.2266 99.5312 10.7285 99.875 10.2949C100.219 9.86133 100.695 9.52539 101.305 9.28711C101.914 9.04883 102.602 8.92969 103.367 8.92969ZM103.367 10.1133C102.859 10.1094 102.416 10.1738 102.037 10.3066C101.658 10.4395 101.363 10.6328 101.152 10.8867C100.941 11.1367 100.836 11.4375 100.836 11.7891C100.836 12.1367 100.941 12.4395 101.152 12.6973C101.363 12.9512 101.658 13.1484 102.037 13.2891C102.42 13.4258 102.863 13.4941 103.367 13.4941C103.867 13.4941 104.309 13.4258 104.691 13.2891C105.074 13.1484 105.371 12.9512 105.582 12.6973C105.797 12.4395 105.904 12.1367 105.904 11.7891C105.904 11.4375 105.799 11.1367 105.588 10.8867C105.377 10.6367 105.08 10.4453 104.697 10.3125C104.318 10.1758 103.875 10.1094 103.367 10.1133Z" fill="#40FF81"/>
<path d="M129 14L121 18L121 10L129 14Z" fill="#3B3C42"/>
</svg>
